<svg width="125" height="47" viewBox="0 0 125 47" fill="none" xmlns="http://www.w3.org/2000/svg">
<g clip-path="url(#clip0_480_6664)">
<path d="M48.2705 46.0081L49.0046 46.6625V1.12609L48.2705 0.84375V46.0081Z" fill="white"/>
<path d="M19.7939 42.8828L23.3647 45.8059L23.368 43.3412L22.8964 42.8828H19.7939Z" fill="white"/>
<path style="mix-blend-mode:multiply" opacity="0.56" d="M32.4089 42.8828H23.4404V42.8895H32.4089V42.8828Z" fill="url(#paint0_linear_480_6664)"/>
<path style="mix-blend-mode:multiply" opacity="0.56" d="M23.418 42.8828H23.3682V43.3412L23.4446 43.4143L23.4412 42.8895H23.418V42.8828Z" fill="url(#paint1_linear_480_6664)"/>
<path d="M22.8965 42.8828L23.3682 43.3412V42.8828H22.8965Z" fill="white"/>
<path style="mix-blend-mode:multiply" opacity="0.56" d="M22.8965 42.8828L23.3682 43.3412V42.8828H22.8965Z" fill="url(#paint2_linear_480_6664)"/>
<path style="mix-blend-mode:multiply" opacity="0.56" d="M23.4412 42.8828H23.418V42.8895H23.4412V42.8828Z" fill="url(#paint3_linear_480_6664)"/>
<path style="mix-blend-mode:multiply" opacity="0.56" d="M23.4412 42.8828H23.418V42.8895H23.4412V42.8828Z" fill="url(#paint4_linear_480_6664)"/>
<path d="M19.5148 1.64082L19.5215 1.6375L19.5049 1.63086L15.6816 3.31825L19.4982 1.63418L19.5148 1.64082Z" fill="#363559"/>
<path d="M19.7939 42.8828L23.3647 45.8059L23.368 43.3412L22.8964 42.8828H19.7939Z" fill="white"/>
<path d="M19.8072 30.7852L22.7768 27.7758L23.3813 27.1547H23.388H23.3913H25.6733H32.4029L32.3996 27.1514H23.3846L19.7939 30.7852V30.7952H19.8072V30.7852Z" fill="white"/>
<path d="M32.4092 30.7813V31.1866V38.6835V39.205V42.8821H32.4125L36.0098 39.205V30.7714L32.4092 27.1641V30.7813Z" fill="white"/>
<path d="M23.3939 31.3133V30.8184H23.3906L23.3939 31.3133Z" fill="white"/>
<path d="M0 10.2243L0.0232515 12.1044L0.0132866 12.1077V14.1937L3.63388 12.6259V12.6192L17.0035 6.70338L19.5578 5.59396L15.0238 3.61426L0 10.2243Z" fill="white"/>
<path d="M0.0332098 39.2151L3.61726 42.8822H19.7937L19.777 42.8689L19.7837 39.8396L19.7671 39.823V39.2084H19.7505V42.8523H3.64716V39.2084H3.63387V17.5879H0.0166016L0.0332098 39.2151Z" fill="white"/>
<path d="M24.0655 3.63342L24.0788 3.62677L19.5281 1.63379L19.5215 1.63711L21.5045 2.51402L24.0655 3.63342Z" fill="white"/>
<path d="M21.5043 2.51461L19.5213 1.6377L19.5146 1.64102L21.5043 2.51461Z" fill="white"/>
<path d="M22.7762 27.7754L19.8066 30.7848V30.7948H19.8266L22.7762 27.7754Z" fill="white"/>
<path d="M19.784 39.8398L19.7773 42.8692L19.794 42.8825H22.8964L19.784 39.8398Z" fill="white"/>
<path d="M19.7508 39.209H3.64746V42.8528H19.7508V39.209Z" fill="white"/>
<path style="mix-blend-mode:multiply" opacity="0.56" d="M19.7508 39.209H3.64746V42.8528H19.7508V39.209Z" fill="url(#paint5_linear_480_6664)"/>
<path style="mix-blend-mode:multiply" opacity="0.56" d="M23.4277 39.2084H23.9758H32.4095V39.2051H23.4277V39.2084Z" fill="url(#paint6_linear_480_6664)"/>
<path style="mix-blend-mode:multiply" opacity="0.56" d="M32.4089 42.8828H23.4404V42.8895H32.4089V42.8828Z" fill="url(#paint7_linear_480_6664)"/>
<path d="M32.4095 39.2051V39.2084H23.9758H23.4277L23.441 42.8821H32.4095V39.2051Z" fill="white"/>
<path style="mix-blend-mode:multiply" opacity="0.56" d="M32.4095 39.2051V39.2084H23.9758H23.4277L23.441 42.8821H32.4095V39.2051Z" fill="url(#paint8_linear_480_6664)"/>
<path style="mix-blend-mode:multiply" opacity="0.56" d="M32.409 27.1543H32.4023L32.409 27.1643V27.1543Z" fill="url(#paint9_linear_480_6664)"/>
<path style="mix-blend-mode:multiply" opacity="0.56" d="M23.3945 30.785V30.8182L32.4095 30.7816V30.7783H31.4628H25.7164V30.785H23.3945Z" fill="url(#paint10_linear_480_6664)"/>
<path d="M25.7164 30.7783H23.3945V30.785H25.7164V30.7783Z" fill="white"/>
<path style="mix-blend-mode:multiply" opacity="0.56" d="M25.7164 30.7783H23.3945V30.785H25.7164V30.7783Z" fill="url(#paint11_linear_480_6664)"/>
<path d="M23.3906 30.8184H23.3939V30.7852H23.3906V30.7951V30.8184Z" fill="white"/>
<path style="mix-blend-mode:multiply" opacity="0.56" d="M23.3906 30.8184H23.3939V30.7852H23.3906V30.7951V30.8184Z" fill="url(#paint12_linear_480_6664)"/>
<path d="M23.3809 27.1543L22.7764 27.7754L23.3876 27.1543H23.3809Z" fill="white"/>
<path style="mix-blend-mode:multiply" opacity="0.56" d="M23.3809 27.1543L22.7764 27.7754L23.3876 27.1543H23.3809Z" fill="url(#paint13_linear_480_6664)"/>
<path d="M25.716 30.7782H31.4625H32.4091V30.7815V27.1643L32.4025 27.1543H25.6729L25.716 30.7782Z" fill="white"/>
<path style="mix-blend-mode:multiply" opacity="0.56" d="M25.716 30.7782H31.4625H32.4091V30.7815V27.1643L32.4025 27.1543H25.6729L25.716 30.7782Z" fill="url(#paint14_linear_480_6664)"/>
<path d="M23.3913 30.7948V30.7849H23.3946V30.7782H25.7164L25.6732 27.1543H23.3879L22.7768 27.7754L19.8271 30.7948H23.3913Z" fill="white"/>
<path style="mix-blend-mode:multiply" opacity="0.56" d="M23.3913 30.7948V30.7849H23.3946V30.7782H25.7164L25.6732 27.1543H23.3879L22.7768 27.7754L19.8271 30.7948H23.3913Z" fill="url(#paint15_linear_480_6664)"/>
<path style="mix-blend-mode:multiply" opacity="0.56" d="M3.64043 17.5883L3.6504 12.6191L3.63379 12.6258V17.5883H3.64043Z" fill="url(#paint16_linear_480_6664)"/>
<path style="mix-blend-mode:multiply" opacity="0.56" d="M0 14.2V17.5881H0.0166082L0.0132866 14.1934L0 14.2Z" fill="url(#paint17_linear_480_6664)"/>
<path d="M0.0169935 17.5885H3.63426V12.626L0.0136719 14.1938L0.0169935 17.5885Z" fill="white"/>
<path style="mix-blend-mode:multiply" opacity="0.56" d="M0.0169935 28.2908L3.63426 28.2942V12.626L0.0136719 14.1938L0.0169935 28.2908Z" fill="url(#paint18_linear_480_6664)"/>
<path style="mix-blend-mode:multiply" opacity="0.56" d="M23.4178 39.209V39.2057H23.4277L23.3945 31.3135V39.209H23.4178Z" fill="url(#paint19_linear_480_6664)"/>
<path style="mix-blend-mode:multiply" opacity="0.56" d="M19.7932 36.1527V30.8315H19.7899H19.7932V30.7949H19.7666V39.2086H19.7832L19.7932 36.1527Z" fill="url(#paint20_linear_480_6664)"/>
<path style="mix-blend-mode:multiply" opacity="0.56" d="M23.418 42.8828H23.3682V43.3412L23.4446 43.4143L23.4412 42.8895H23.418V42.8828Z" fill="url(#paint21_linear_480_6664)"/>
<path d="M19.7941 36.1523L19.7842 39.2083H19.7941V36.1523Z" fill="white"/>
<path style="mix-blend-mode:multiply" opacity="0.56" d="M19.7941 36.1523L19.7842 39.2083H19.7941V36.1523Z" fill="url(#paint22_linear_480_6664)"/>
<path d="M22.8965 42.8828L23.3682 43.3412V42.8828H22.8965Z" fill="white"/>
<path style="mix-blend-mode:multiply" opacity="0.56" d="M22.8965 42.8828L23.3682 43.3412V42.8828H22.8965Z" fill="url(#paint23_linear_480_6664)"/>
<path d="M19.8072 30.8182V30.7949H19.7939V30.8315L19.8072 30.8182Z" fill="white"/>
<path style="mix-blend-mode:multiply" opacity="0.56" d="M19.8072 30.8182V30.7949H19.7939V30.8315L19.8072 30.8182Z" fill="url(#paint24_linear_480_6664)"/>
<path d="M19.7939 30.8311V36.1523L19.8072 30.8311H19.7939Z" fill="white"/>
<path style="mix-blend-mode:multiply" opacity="0.56" d="M19.7939 30.8311V36.1523L19.8072 30.8311H19.7939Z" fill="url(#paint25_linear_480_6664)"/>
<path d="M23.3947 39.2088L23.3914 30.8582L23.3947 39.2088V31.3133L23.3914 30.8184L23.3682 42.8826H23.418V39.2088H23.3947Z" fill="white"/>
<path style="mix-blend-mode:multiply" opacity="0.56" d="M23.3947 39.2088L23.3914 30.8582L23.3947 39.2088V31.3133L23.3914 30.8184L23.3682 42.8826H23.418V39.2088H23.3947Z" fill="url(#paint26_linear_480_6664)"/>
<path d="M19.7832 39.8401V39.209H19.7666V39.8235L19.7832 39.8401Z" fill="white"/>
<path style="mix-blend-mode:multiply" opacity="0.56" d="M19.7832 39.8401V39.209H19.7666V39.8235L19.7832 39.8401Z" fill="url(#paint27_linear_480_6664)"/>
<path d="M19.8066 30.7949V30.8182L19.8266 30.7949H19.8066Z" fill="white"/>
<path style="mix-blend-mode:multiply" opacity="0.56" d="M19.8066 30.7949V30.8182L19.8266 30.7949H19.8066Z" fill="url(#paint28_linear_480_6664)"/>
<path d="M23.3682 42.8826L23.3915 30.8184L19.8074 30.8316L19.7941 36.1529V39.2088H19.7842V39.8399L22.8966 42.8826H23.3682Z" fill="white"/>
<path style="mix-blend-mode:multiply" opacity="0.56" d="M23.3682 42.8826L23.3915 30.8184L19.8074 30.8316L19.7941 36.1529V39.2088H19.7842V39.8399L22.8966 42.8826H23.3682Z" fill="url(#paint29_linear_480_6664)"/>
<path style="mix-blend-mode:multiply" opacity="0.56" d="M23.4412 42.8828H23.418V42.8895H23.4412V42.8828Z" fill="url(#paint30_linear_480_6664)"/>
<path style="mix-blend-mode:multiply" opacity="0.56" d="M23.4412 42.8828H23.418V42.8895H23.4412V42.8828Z" fill="url(#paint31_linear_480_6664)"/>
<path d="M23.418 42.8827H23.4412L23.4279 39.209H23.418V42.8827Z" fill="white"/>
<path style="mix-blend-mode:multiply" opacity="0.56" d="M23.418 42.8827H23.4412L23.4279 39.209H23.418V42.8827Z" fill="url(#paint32_linear_480_6664)"/>
<path style="mix-blend-mode:multiply" opacity="0.56" d="M23.418 42.8827H23.4412L23.4279 39.209H23.418V42.8827Z" fill="url(#paint33_linear_480_6664)"/>
<path d="M19.8072 30.8184L19.7939 30.8316H19.8072V30.8184Z" fill="white"/>
<path style="mix-blend-mode:multiply" opacity="0.56" d="M19.8072 30.8184L19.7939 30.8316H19.8072V30.8184Z" fill="url(#paint34_linear_480_6664)"/>
<path style="mix-blend-mode:multiply" opacity="0.56" d="M19.8072 30.8184L19.7939 30.8316H19.8072V30.8184Z" fill="url(#paint35_linear_480_6664)"/>
<path d="M23.3907 30.8182V30.7949H19.8266L19.8066 30.8182V30.8315L23.3907 30.8182Z" fill="white"/>
<path style="mix-blend-mode:multiply" opacity="0.56" d="M23.3907 30.8182V30.7949H19.8266L19.8066 30.8182V30.8315L23.3907 30.8182Z" fill="url(#paint36_linear_480_6664)"/>
<path style="mix-blend-mode:multiply" opacity="0.56" d="M23.3907 30.8182V30.7949H19.8266L19.8066 30.8182V30.8315L23.3907 30.8182Z" fill="url(#paint37_linear_480_6664)"/>
<path d="M36.0596 12.7979L36.7106 13.0835L36.0596 12.7979Z" fill="white"/>
<path d="M36.0596 14.2031V17.827H39.7665V17.8038H36.0629L36.0596 14.2031Z" fill="white"/>
<path d="M15.6819 3.31836L15.0176 3.61066L15.0242 3.61399L15.6753 3.32832L15.6819 3.31836Z" fill="white"/>
<path d="M39.7665 14.416V10.5364L36.0363 12.7585L19.5576 5.59375L36.0595 12.7984L36.7106 13.0841L39.7665 14.416Z" fill="white"/>
<path d="M19.5146 1.64043L19.498 1.63379L15.6814 3.31786L15.6748 3.32783L19.5146 1.64043Z" fill="white"/>
<path d="M19.5475 5.58717L24.0649 3.63404L21.504 2.51465L23.3275 3.31849L23.3441 3.35835L19.5043 5.05238L15.6645 3.35835L15.6745 3.32845L15.0234 3.61411L19.5575 5.59381L19.5475 5.58717Z" fill="white"/>
<path d="M15.675 3.32802L15.665 3.35791L19.5049 5.05195L23.3447 3.35791L23.3281 3.31805L21.5045 2.51422L19.5148 1.64062L15.675 3.32802Z" fill="white"/>
<path style="mix-blend-mode:multiply" opacity="0.56" d="M36.0599 8.88179L39.7668 10.5061V10.536L39.8366 10.4928L24.0787 3.62695L24.0654 3.6336L36.0599 8.88179Z" fill="url(#paint38_linear_480_6664)"/>
<path d="M24.0654 3.6336L24.0787 3.62695L24.0654 3.6336Z" fill="white"/>
<path style="mix-blend-mode:multiply" opacity="0.56" d="M24.0654 3.6336L24.0787 3.62695L24.0654 3.6336Z" fill="url(#paint39_linear_480_6664)"/>
<path d="M36.0595 8.88198L24.0651 3.63379L19.5576 5.59356L36.0363 12.7583L39.7665 10.5362V10.5063L36.0595 8.88198Z" fill="white"/>
<path style="mix-blend-mode:multiply" opacity="0.56" d="M36.0595 8.88198L24.0651 3.63379L19.5576 5.59356L36.0363 12.7583L39.7665 10.5362V10.5063L36.0595 8.88198Z" fill="url(#paint40_linear_480_6664)"/>
<path d="M24.0653 3.63379L19.5479 5.58691L19.5578 5.59356L24.0653 3.63379Z" fill="white"/>
<path style="mix-blend-mode:multiply" opacity="0.56" d="M24.0653 3.63379L19.5479 5.58691L19.5578 5.59356L24.0653 3.63379Z" fill="url(#paint41_linear_480_6664)"/>
<path style="mix-blend-mode:multiply" opacity="0.56" d="M36.0566 12.7979L36.06 14.2029V12.7979H36.0566Z" fill="url(#paint42_linear_480_6664)"/>
<path d="M36.7106 13.0835L36.0596 12.7979V14.2029L36.0629 17.8036H39.7665V14.4188L36.7106 13.0835Z" fill="white"/>
<path style="mix-blend-mode:multiply" opacity="0.56" d="M36.7106 13.0835L36.0596 12.7979V14.2029L36.0629 17.8036H39.7665V14.4188L36.7106 13.0835Z" fill="url(#paint43_linear_480_6664)"/>
<path d="M39.7668 14.4193V14.416L36.7109 13.084L39.7668 14.4193Z" fill="white"/>
<path style="mix-blend-mode:multiply" opacity="0.56" d="M39.7668 14.4193V14.416L36.7109 13.084L39.7668 14.4193Z" fill="url(#paint44_linear_480_6664)"/>
<path d="M104.918 4.6968H106.526V12.8448H115.81V4.66358C117.866 4.74663 119.865 4.36464 121.812 4.96585C123.16 5.38106 123.984 6.44066 124.07 7.78261C124.21 9.93835 124.107 12.1107 124.107 14.3495C123.908 14.3495 123.642 14.3495 123.373 14.3495C114.242 14.3495 93.063 14.3495 83.9318 14.3495C81.0552 14.3495 80.2913 13.5955 80.2813 10.7023C80.268 7.35079 80.2813 3.99926 80.2813 0.64772C80.2813 0.451743 80.2813 0.255766 80.2813 0H81.8856C81.8856 0.252445 81.8856 0.518176 81.8856 0.783907C81.8856 4.21184 81.8856 7.63645 81.8856 11.0644C81.8856 12.5326 82.2344 12.8813 83.6893 12.888C84.9117 12.8946 93.3686 12.888 94.6673 12.888V5.39435H96.2218V12.8381H99.7959V5.39102H101.414V12.8481H104.921V4.6968H104.918ZM122.609 12.8548C122.609 11.3467 122.665 9.92174 122.592 8.5034C122.526 7.19135 121.755 6.33769 120.463 6.1849C119.463 6.06864 118.44 6.16164 117.431 6.16164V12.8514H122.609V12.8548Z" fill="white"/>
<path d="M66.2904 12.8677H75.5744V4.71973H77.1522V14.306H57.5977V12.9209H64.8222C64.7292 11.1338 64.7425 9.41653 64.51 7.73246C64.3605 6.65957 63.3939 6.15468 62.0188 6.11814C61.0754 6.09156 60.1287 6.11149 59.1356 6.11149V4.78948C60.6004 4.78948 62.0619 4.64001 63.477 4.82934C65.1909 5.05521 66.1708 6.38055 66.2539 8.23734C66.3103 9.48628 66.2771 10.7385 66.2837 11.9875C66.2837 12.2565 66.2837 12.5256 66.2837 12.8677H66.2904Z" fill="white"/>
<path d="M75.6911 1.65723C75.6279 1.65723 75.5781 1.70705 75.5781 1.77016V3.32801H77.0363C77.0994 3.32801 77.1493 3.27819 77.1493 3.21508V1.77016C77.1493 1.70705 77.0994 1.65723 77.0363 1.65723H75.6911Z" fill="white"/>
<path d="M66.4998 17.578V26.108H65.4901V18.8369C65.4635 18.8303 65.4336 18.8203 65.407 18.8137C65.3406 18.9598 65.2642 19.1026 65.2111 19.2521C64.4139 21.3979 63.61 23.5403 62.8294 25.6928C62.7032 26.0382 62.5404 26.2076 62.1651 26.1445C62.0356 26.1213 61.8961 26.1246 61.7632 26.1445C61.4676 26.1943 61.3546 26.0449 61.2583 25.7858C60.4412 23.5669 59.6108 21.3547 58.7837 19.1392C58.7438 19.0296 58.6973 18.9199 58.5877 18.8103V26.108H57.6045V17.5979H59.2653C60.1688 20.0261 61.0823 22.4741 62.0322 25.0284C62.1551 24.7229 62.2481 24.5003 62.3312 24.2744C63.1151 22.1718 63.9023 20.0692 64.6696 17.96C64.7792 17.6577 64.9354 17.5448 65.2542 17.5647C65.6528 17.5913 66.0547 17.5714 66.5032 17.5714L66.4998 17.578Z" fill="white"/>
<path d="M97.7432 17.5784C98.1085 17.5784 98.454 17.5485 98.7895 17.5917C98.929 17.6117 99.0785 17.7711 99.1681 17.904C100.533 19.98 101.892 22.0627 103.25 24.1453C103.34 24.2815 103.43 24.4144 103.603 24.5373V17.5984H104.572V26.1383C104.217 26.1383 103.865 26.1649 103.516 26.125C103.393 26.1117 103.264 25.9457 103.184 25.8194C101.806 23.7168 100.434 21.6076 99.0585 19.5017C98.9722 19.3688 98.8792 19.2393 98.7098 18.9968V26.1184H97.7465V17.5784H97.7432Z" fill="white"/>
<path d="M116.919 17.6609C118.361 17.6609 119.782 17.5579 121.181 17.6874C122.709 17.8303 123.615 18.7902 123.938 20.3248C124.157 21.3579 124.15 22.4009 123.928 23.4306C123.559 25.1113 122.496 26.0115 120.659 26.1145C119.427 26.1842 118.188 26.1277 116.919 26.1277V17.6609ZM117.932 18.4581V25.2276C118.726 25.2276 119.487 25.2641 120.244 25.2209C121.805 25.1346 122.675 24.5101 122.851 23.2246C122.971 22.3544 122.958 21.4442 122.861 20.5673C122.755 19.5708 122.164 18.8135 121.141 18.6574C120.091 18.4979 119.018 18.5212 117.932 18.4614V18.4581Z" fill="white"/>
<path d="M69.9278 17.598H70.9442C70.9442 17.7774 70.9442 17.9369 70.9442 18.0963C70.9442 19.6608 70.9343 21.2286 70.9442 22.7931C70.9575 24.62 71.5687 25.2245 73.3989 25.2345C74.0666 25.2378 74.7342 25.2345 75.4583 25.2345V17.6014H76.4947V26.0749C76.4947 26.0749 76.4581 26.1247 76.4382 26.1247C75.1561 26.1247 73.8706 26.1812 72.5918 26.1081C70.9542 26.0151 70.0308 25.1614 69.9477 23.5272C69.8481 21.5674 69.9245 19.5977 69.9245 17.5947L69.9278 17.598Z" fill="white"/>
<path d="M87.4863 26.1409C88.6057 23.2544 89.7052 20.4243 90.798 17.6076C90.8578 17.5943 90.8877 17.5843 90.9176 17.5843C91.6594 17.5511 92.1632 17.8755 92.4289 18.5576C93.349 20.9259 94.2658 23.2909 95.1826 25.6593C95.2357 25.7954 95.2822 25.935 95.3553 26.1409C95.0099 26.1409 94.7043 26.1641 94.4053 26.1276C94.3023 26.1143 94.1761 25.9715 94.1296 25.8619C93.9137 25.3238 93.7144 24.779 93.5284 24.2309C93.4454 23.9885 93.3258 23.8822 93.0501 23.8855C91.9639 23.9021 90.8744 23.8988 89.7882 23.8855C89.5325 23.8855 89.3896 23.9386 89.3033 24.211C89.1438 24.7192 88.908 25.2075 88.7552 25.719C88.6555 26.0446 88.5094 26.1907 88.1639 26.1442C87.9613 26.1176 87.7521 26.1409 87.4863 26.1409ZM91.459 18.6539C91.4258 18.6539 91.3893 18.6539 91.356 18.6539C90.8312 20.0756 90.3064 21.4972 89.7683 22.9455H93.0434C92.5053 21.484 91.9805 20.0689 91.459 18.6539Z" fill="white"/>
<path d="M85.3366 17.6175V18.5111C84.6823 18.5111 84.0445 18.5111 83.4067 18.5111C82.8554 18.5111 82.304 18.4978 81.7526 18.5376C81.0118 18.5941 80.6066 19.1156 80.6132 19.9261C80.6199 20.7499 81.0218 21.2547 81.7592 21.3112C82.2641 21.3478 82.7723 21.3278 83.2772 21.3411C85.3532 21.3909 85.8681 22.6897 85.6655 24.2608C85.5226 25.3769 84.9181 26.008 83.7489 26.0877C82.4202 26.1807 81.0783 26.111 79.7197 26.111V25.2341C79.8725 25.2341 80.0286 25.2341 80.1847 25.2341C81.1547 25.2341 82.1213 25.2474 83.0912 25.2307C84.184 25.2108 84.669 24.6794 84.6158 23.5998C84.576 22.7727 84.1275 22.321 83.2905 22.2845C82.7989 22.2645 82.3073 22.2845 81.8157 22.2645C80.0021 22.1948 79.3743 21.082 79.5636 19.4976C79.7031 18.3118 80.3243 17.6973 81.5234 17.6342C82.7823 17.5677 84.0478 17.6175 85.3333 17.6175H85.3366Z" fill="white"/>
<path d="M114.441 25.0186H108.824V22.4808H113.936V21.3116H108.831V18.7241H113.933V17.6445H107.738C107.738 20.3118 107.738 23.2581 107.738 26.1612H114.441V25.0186Z" fill="white"/>
<path d="M58.1392 35.7139H59.1157V32.1464H60.3281V31.3525H56.9268V32.1464H58.1392V35.7139Z" fill="white"/>
<path d="M63.9088 35.7144V33.6782C63.9088 33.4988 63.8889 33.3328 63.849 33.1766C63.8092 33.0205 63.7427 32.881 63.653 32.7648C63.5634 32.6485 63.4438 32.5555 63.301 32.4891C63.1581 32.4226 62.9854 32.3894 62.7894 32.3894C62.5802 32.3894 62.3809 32.4326 62.2048 32.519C62.0719 32.5821 61.9557 32.6718 61.856 32.7814V31.0342H60.916V35.7111H61.856V34.12C61.856 34.0104 61.8693 33.8974 61.8893 33.7812C61.9125 33.6649 61.949 33.5586 62.0022 33.4656C62.052 33.3726 62.1218 33.2962 62.2048 33.2331C62.2845 33.1766 62.3875 33.1467 62.5071 33.1467C62.6167 33.1467 62.7031 33.1667 62.7662 33.2032C62.826 33.2364 62.8758 33.3062 62.909 33.4092C62.9422 33.5055 62.9621 33.5985 62.9655 33.6849C62.9688 33.7812 62.9721 33.8775 62.9721 33.9838V35.7144H63.9088Z" fill="white"/>
<path d="M67.463 35.5309L67.4929 35.5143V34.7039L67.3999 34.7603C67.2471 34.85 67.0844 34.9264 66.915 34.9829C66.7489 35.0393 66.5728 35.0692 66.3968 35.0692C66.2805 35.0692 66.1742 35.0526 66.0779 35.0194C65.9816 34.9862 65.8952 34.9397 65.8255 34.8766C65.7557 34.8168 65.6959 34.7404 65.6527 34.6474C65.6162 34.5743 65.5929 34.4946 65.5797 34.4049H67.7321V34.3185C67.7321 34.2089 67.7288 34.0927 67.7188 33.9731C67.7088 33.8535 67.6922 33.7339 67.669 33.6144C67.6457 33.4948 67.6125 33.3785 67.576 33.2656C67.5361 33.1526 67.4863 33.0464 67.4232 32.9467C67.3567 32.8404 67.2737 32.7507 67.1807 32.6777C67.0877 32.6079 66.9847 32.5481 66.8751 32.5049C66.7655 32.4617 66.6526 32.4319 66.533 32.4152C66.4167 32.3986 66.3005 32.3887 66.1842 32.3887C65.9318 32.3887 65.7059 32.4352 65.5166 32.5249C65.3272 32.6145 65.1678 32.7408 65.0416 32.8969C64.9187 33.053 64.8223 33.2357 64.7625 33.4416C64.7027 33.6476 64.6729 33.8701 64.6729 34.0993C64.6729 34.3684 64.7094 34.6108 64.7858 34.8168C64.8622 35.0261 64.9718 35.2054 65.1146 35.3483C65.2575 35.4911 65.4402 35.6007 65.6494 35.6738C65.8587 35.7469 66.0978 35.7834 66.3669 35.7834C66.5562 35.7834 66.7456 35.7635 66.9316 35.7302C67.1209 35.6937 67.3036 35.6239 67.4697 35.5276L67.463 35.5309ZM65.573 33.7206C65.583 33.6476 65.5996 33.5778 65.6262 33.5147C65.6561 33.4317 65.7026 33.3619 65.7557 33.3021C65.8122 33.2423 65.8786 33.1958 65.955 33.1626C66.1111 33.0929 66.3436 33.0962 66.4898 33.1626C66.5629 33.1958 66.6227 33.2423 66.6692 33.3021C66.7157 33.3619 66.7555 33.435 66.7788 33.5147C66.7987 33.5811 66.812 33.6509 66.8186 33.724H65.573V33.7206Z" fill="white"/>
<path d="M73.1097 34.3487L71.6016 31.3858L71.585 31.3525H70.4424V35.7139H71.3791V32.7211L72.9104 35.7139H74.0464V31.3525H73.1097V34.3487Z" fill="white"/>
<path d="M75.1994 35.5349C75.309 35.6179 75.4319 35.681 75.5681 35.7242C75.7043 35.7674 75.8438 35.7906 75.9866 35.7906C76.0896 35.7906 76.1892 35.7773 76.2889 35.7508C76.3885 35.7242 76.4848 35.6876 76.5712 35.6378C76.6609 35.588 76.7406 35.5282 76.8137 35.4585C76.8469 35.4286 76.8768 35.3953 76.9034 35.3588C76.9034 35.3821 76.9034 35.402 76.91 35.4252C76.9167 35.505 76.9266 35.5814 76.9366 35.6611L76.9432 35.7142H77.7836V35.6478C77.757 35.3256 77.7437 35.0034 77.7404 34.6945C77.7371 34.3789 77.7338 34.06 77.7338 33.7378C77.7338 33.2861 77.6142 32.9473 77.3784 32.7247C77.1458 32.5055 76.8004 32.3926 76.3586 32.3926C76.156 32.3926 75.96 32.4125 75.7707 32.4524C75.5814 32.4922 75.392 32.5553 75.2093 32.6351L75.1695 32.6517L75.2027 33.512L75.299 33.4389C75.4352 33.3359 75.5814 33.2529 75.7342 33.1964C75.8869 33.1399 76.053 33.1101 76.2224 33.1101C76.3354 33.1101 76.4383 33.12 76.5214 33.1433C76.6011 33.1632 76.6642 33.1997 76.7174 33.2462C76.7672 33.2927 76.8037 33.3525 76.8303 33.4289C76.8502 33.4954 76.8635 33.5718 76.8668 33.6648C76.8236 33.6648 76.7805 33.6648 76.7373 33.6648C76.5347 33.6648 76.3254 33.6648 76.1095 33.6781C75.9667 33.688 75.8238 33.7113 75.691 33.7478C75.5548 33.7843 75.4286 33.8375 75.309 33.9072C75.1894 33.977 75.0864 34.0767 75.0034 34.1996C74.9403 34.2926 74.8971 34.3922 74.8705 34.4919C74.8473 34.5915 74.834 34.6945 74.834 34.8008C74.834 34.9602 74.8672 35.103 74.9336 35.2259C75.0001 35.3488 75.0898 35.4518 75.1994 35.5382V35.5349ZM76.4383 34.2726H76.8668C76.8668 34.369 76.8502 34.462 76.827 34.5483C76.8004 34.648 76.7605 34.7377 76.7041 34.8174C76.6509 34.8938 76.5812 34.9536 76.4948 35.0001C76.3719 35.0665 76.2025 35.0898 76.0198 35.0499C75.9667 35.0399 75.9168 35.02 75.8737 34.9934C75.8338 34.9669 75.7973 34.9336 75.7707 34.8938C75.7474 34.8572 75.7342 34.8074 75.7342 34.7476C75.7342 34.6613 75.7541 34.5849 75.7939 34.5284C75.8371 34.4686 75.8903 34.4188 75.9567 34.3789C76.0231 34.3391 76.0995 34.3125 76.1859 34.2959C76.2723 34.2793 76.3586 34.2693 76.4383 34.2693V34.2726Z" fill="white"/>
<path d="M79.9692 35.7908C80.0722 35.7908 80.1752 35.7841 80.2781 35.7741C80.3844 35.7642 80.4874 35.7443 80.587 35.711L80.6335 35.6978L80.6037 34.9006L80.514 34.957C80.4641 34.9869 80.411 35.0068 80.3545 35.0168C80.2349 35.0401 80.1021 35.0434 80.0257 35.0002C79.9858 34.977 79.9526 34.9471 79.9294 34.9105C79.9028 34.8707 79.8862 34.8242 79.8729 34.7743C79.8596 34.7212 79.8563 34.6647 79.8563 34.6049V33.1866H80.5804V32.4658H79.8563V31.5557L78.9163 31.8579V32.4658H78.3184V33.1866H78.9163V34.7145C78.9163 34.8806 78.9395 35.0334 78.9827 35.163C79.0292 35.2958 79.0956 35.4121 79.1853 35.5051C79.275 35.5981 79.3879 35.6712 79.5175 35.7177C79.647 35.7642 79.7998 35.7908 79.9659 35.7908H79.9692Z" fill="white"/>
<path d="M82.2115 32.4658H81.2715V35.7177H82.2115V32.4658Z" fill="white"/>
<path d="M82.2115 31.1201H81.2715V32.0203H82.2115V31.1201Z" fill="white"/>
<path d="M85.9051 35.3289C86.0545 35.1828 86.1741 35.0034 86.2572 34.7974C86.3402 34.5915 86.3801 34.359 86.3801 34.1099C86.3801 33.8607 86.3402 33.6216 86.2605 33.4123C86.1808 33.1997 86.0645 33.017 85.9184 32.8676C85.7689 32.7181 85.5895 32.5985 85.3803 32.5155C85.171 32.4324 84.9352 32.3926 84.6794 32.3926C84.4236 32.3926 84.1878 32.4358 83.9818 32.5188C83.7759 32.6018 83.5932 32.7214 83.4471 32.8709C83.3009 33.0204 83.1847 33.2064 83.1049 33.4156C83.0252 33.6249 82.9854 33.8607 82.9854 34.1099C82.9854 34.359 83.0285 34.5882 83.1083 34.7941C83.1913 35.0001 83.3109 35.1794 83.4603 35.3256C83.6098 35.4717 83.7892 35.588 83.9985 35.6677C84.2044 35.7474 84.4336 35.7906 84.6827 35.7906C84.9318 35.7906 85.161 35.7508 85.3703 35.671C85.5796 35.5913 85.7589 35.4784 85.9117 35.3322L85.9051 35.3289ZM85.0381 34.9469C84.9484 35.0034 84.8255 35.0333 84.6794 35.0333C84.6163 35.0333 84.5532 35.0266 84.5 35.0134C84.4469 35.0001 84.3937 34.9768 84.3373 34.9403C84.2675 34.8971 84.2144 34.8473 84.1745 34.7974C84.1313 34.7443 84.0981 34.6845 84.0715 34.6247C84.045 34.5616 84.025 34.4952 84.0117 34.4221C83.9985 34.3457 83.9852 34.2693 83.9752 34.1896C83.9719 34.1597 83.9686 34.1298 83.9652 34.1032C83.9652 34.0733 83.9619 34.0468 83.9619 34.0202C83.9619 33.9072 83.9785 33.7976 84.0084 33.6947C84.0383 33.5917 84.0848 33.4987 84.1446 33.419C84.2044 33.3392 84.2808 33.2761 84.3672 33.2296C84.4568 33.1831 84.5598 33.1599 84.6794 33.1599C84.8056 33.1599 84.9152 33.1831 85.0016 33.2296C85.0913 33.2761 85.1644 33.3359 85.2241 33.4156C85.2839 33.492 85.3271 33.585 85.357 33.6913C85.3869 33.7976 85.4035 33.9106 85.4035 34.0268C85.4035 34.1531 85.3935 34.2826 85.3703 34.4088C85.3504 34.5317 85.3105 34.6413 85.2574 34.7343C85.2042 34.8273 85.1311 34.9037 85.0381 34.9602V34.9469Z" fill="white"/>
<path d="M88.9838 33.2064C89.0435 33.2396 89.0934 33.3094 89.1266 33.4123C89.1598 33.5087 89.1797 33.6017 89.1831 33.688C89.1864 33.7843 89.1897 33.8807 89.1897 33.987V35.7175H90.1264V33.6814C90.1264 33.502 90.1065 33.3359 90.0666 33.1798C90.0267 33.0237 89.9603 32.8842 89.8673 32.7679C89.7776 32.6517 89.658 32.5587 89.5152 32.4922C89.3724 32.4258 89.1997 32.3926 89.0037 32.3926C88.7811 32.3926 88.5752 32.4358 88.3991 32.5188C88.263 32.5852 88.1367 32.6782 88.0238 32.7978V32.4623H87.127V35.7142H88.067V34.1232C88.067 34.0135 88.0803 33.9006 88.1002 33.7843C88.1235 33.6681 88.16 33.5618 88.2131 33.4688C88.263 33.3758 88.3327 33.2994 88.4158 33.2363C88.4955 33.1798 88.5984 33.1499 88.718 33.1499C88.8276 33.1499 88.914 33.1698 88.9771 33.2064H88.9838Z" fill="white"/>
<path d="M92.9598 35.4252C92.9665 35.505 92.9764 35.5814 92.9864 35.6611L92.993 35.7142H93.8334V35.6478C93.8068 35.3256 93.7936 35.0034 93.7902 34.6945C93.7869 34.3789 93.7836 34.06 93.7836 33.7378C93.7836 33.2861 93.664 32.9473 93.4282 32.7247C93.1957 32.5055 92.8502 32.3926 92.4084 32.3926C92.2058 32.3926 92.0098 32.4125 91.8205 32.4524C91.6312 32.4922 91.4418 32.5553 91.2591 32.6351L91.2193 32.6517L91.2525 33.512L91.3488 33.4389C91.485 33.3359 91.6312 33.2529 91.784 33.1964C91.9368 33.1399 92.1028 33.1101 92.2722 33.1101C92.3852 33.1101 92.4881 33.12 92.5712 33.1433C92.6509 33.1632 92.714 33.1997 92.7672 33.2462C92.817 33.2927 92.8535 33.3525 92.8801 33.4289C92.9 33.4954 92.9133 33.5718 92.9166 33.6648C92.8735 33.6648 92.8303 33.6648 92.7871 33.6648C92.5845 33.6648 92.3752 33.6648 92.1593 33.6781C92.0165 33.688 91.8736 33.7113 91.7408 33.7478C91.6046 33.7843 91.4784 33.8375 91.3588 33.9072C91.2392 33.977 91.1362 34.0767 91.0532 34.1996C90.9901 34.2926 90.9469 34.3922 90.9203 34.4919C90.8971 34.5915 90.8838 34.6945 90.8838 34.8008C90.8838 34.9602 90.917 35.103 90.9834 35.2259C91.0499 35.3488 91.1396 35.4518 91.2492 35.5382C91.3588 35.6212 91.4817 35.6843 91.6179 35.7275C91.7541 35.7707 91.8936 35.7939 92.0364 35.7939C92.1394 35.7939 92.239 35.7807 92.3387 35.7541C92.4383 35.7275 92.5347 35.691 92.621 35.6411C92.7107 35.5913 92.7904 35.5315 92.8635 35.4618C92.8967 35.4319 92.9266 35.3987 92.9532 35.3621C92.9532 35.3854 92.9532 35.4053 92.9598 35.4286V35.4252ZM91.784 34.7476C91.784 34.6613 91.8039 34.5849 91.8437 34.5284C91.8869 34.4686 91.9401 34.4188 92.0065 34.3789C92.0729 34.3391 92.1493 34.3125 92.2357 34.2959C92.3221 34.2793 92.4084 34.2693 92.4881 34.2693H92.9166C92.9166 34.3656 92.9 34.4586 92.8768 34.545C92.8502 34.6447 92.8103 34.7343 92.7539 34.8141C92.7007 34.8905 92.631 34.9502 92.5446 34.9967C92.4217 35.0632 92.2523 35.0864 92.0696 35.0466C92.0165 35.0366 91.9666 35.0167 91.9235 34.9901C91.8836 34.9635 91.8471 34.9303 91.8205 34.8905C91.7972 34.8539 91.784 34.8041 91.784 34.7443V34.7476Z" fill="white"/>
<path d="M95.6568 31.0371H94.7168V35.714H95.6568V31.0371Z" fill="white"/>
<path d="M99.5297 34.1062H99.8452C100.071 34.1062 100.287 34.0829 100.486 34.0331C100.689 33.9833 100.872 33.9036 101.021 33.7906C101.174 33.6777 101.297 33.5315 101.386 33.3522C101.476 33.1728 101.519 32.9536 101.519 32.6978C101.519 32.5882 101.509 32.4819 101.489 32.3789C101.47 32.2726 101.436 32.173 101.393 32.0767C101.347 31.9803 101.29 31.894 101.217 31.8176C101.144 31.7412 101.054 31.6714 100.951 31.6183C100.762 31.5219 100.559 31.4522 100.343 31.4123C100.131 31.3725 99.9183 31.3525 99.7124 31.3525H98.5498V35.7139H99.5264V34.1062H99.5297ZM100.3 33.1894C100.234 33.2326 100.157 33.2658 100.071 33.2824C99.9814 33.3023 99.8851 33.3123 99.7821 33.3123H99.5264V32.1464H99.7589C99.8652 32.1464 99.9648 32.1564 100.058 32.1796C100.148 32.1996 100.227 32.2361 100.294 32.2826C100.36 32.3291 100.41 32.3856 100.45 32.462C100.486 32.535 100.506 32.6314 100.506 32.7476C100.506 32.8639 100.486 32.9503 100.45 33.02C100.413 33.0898 100.36 33.1495 100.297 33.1894H100.3Z" fill="white"/>
<path d="M103.13 31.0371H102.19V35.714H103.13V31.0371Z" fill="white"/>
<path d="M105.057 35.7906C105.16 35.7906 105.26 35.7773 105.359 35.7508C105.459 35.7242 105.555 35.6876 105.642 35.6378C105.731 35.588 105.811 35.5282 105.884 35.4585C105.917 35.4286 105.947 35.3953 105.974 35.3588C105.974 35.3821 105.974 35.402 105.98 35.4252C105.987 35.505 105.997 35.5814 106.007 35.6611L106.014 35.7142H106.854V35.6478C106.827 35.3256 106.814 35.0034 106.811 34.6945C106.807 34.3789 106.804 34.06 106.804 33.7378C106.804 33.2861 106.685 32.9473 106.449 32.7247C106.216 32.5055 105.871 32.3926 105.429 32.3926C105.226 32.3926 105.03 32.4125 104.841 32.4524C104.652 32.4922 104.462 32.5553 104.28 32.6351L104.24 32.6517L104.273 33.512L104.369 33.4389C104.506 33.3359 104.652 33.2529 104.804 33.1964C104.957 33.1399 105.123 33.1101 105.293 33.1101C105.406 33.1101 105.509 33.12 105.592 33.1433C105.671 33.1632 105.735 33.1997 105.788 33.2462C105.837 33.2927 105.874 33.3525 105.901 33.4289C105.921 33.4954 105.934 33.5718 105.937 33.6648C105.894 33.6648 105.851 33.6648 105.808 33.6648C105.605 33.6648 105.396 33.6648 105.18 33.6781C105.037 33.688 104.894 33.7113 104.761 33.7478C104.625 33.7843 104.499 33.8375 104.379 33.9072C104.26 33.977 104.157 34.0767 104.074 34.1996C104.011 34.2926 103.967 34.3922 103.941 34.4919C103.918 34.5915 103.904 34.6945 103.904 34.8008C103.904 34.9602 103.938 35.103 104.004 35.2259C104.07 35.3488 104.16 35.4518 104.27 35.5382C104.379 35.6212 104.502 35.6843 104.638 35.7275C104.775 35.7707 104.914 35.7939 105.057 35.7939V35.7906ZM105.509 34.2726H105.937C105.937 34.369 105.921 34.462 105.897 34.5483C105.871 34.648 105.831 34.7377 105.774 34.8174C105.721 34.8938 105.651 34.9536 105.565 35.0001C105.442 35.0665 105.273 35.0898 105.09 35.0499C105.037 35.0399 104.987 35.02 104.944 34.9934C104.904 34.9669 104.868 34.9336 104.841 34.8938C104.818 34.8572 104.804 34.8074 104.804 34.7476C104.804 34.6613 104.824 34.5849 104.864 34.5284C104.907 34.4686 104.961 34.4188 105.027 34.3789C105.093 34.3391 105.17 34.3125 105.256 34.2959C105.343 34.2793 105.429 34.2693 105.509 34.2693V34.2726Z" fill="white"/>
<path d="M109.348 35.7741C109.455 35.7642 109.558 35.7443 109.657 35.711L109.704 35.6978L109.674 34.9006L109.584 34.957C109.534 34.9869 109.481 35.0068 109.425 35.0168C109.305 35.0401 109.172 35.0434 109.096 35.0002C109.056 34.977 109.023 34.9471 109 34.9105C108.973 34.8707 108.956 34.8242 108.943 34.7743C108.93 34.7212 108.927 34.6647 108.927 34.6049V33.1866H109.651V32.4658H108.927V31.5557L107.987 31.8579V32.4658H107.389V33.1866H107.987V34.7145C107.987 34.8806 108.01 35.0334 108.053 35.163C108.1 35.2958 108.166 35.4121 108.256 35.5051C108.345 35.5981 108.458 35.6712 108.588 35.7177C108.717 35.7642 108.87 35.7908 109.036 35.7908C109.139 35.7908 109.242 35.7841 109.345 35.7741H109.348Z" fill="white"/>
<path d="M110.621 35.7141H111.558V33.183H112.269V32.4622H111.558V32.1367C111.558 32.0835 111.564 32.0271 111.574 31.9739C111.584 31.9241 111.601 31.8776 111.628 31.841C111.651 31.8045 111.677 31.7746 111.717 31.7514C111.774 31.7181 111.877 31.7148 111.95 31.7248C111.973 31.7248 112 31.7314 112.02 31.7381C112.043 31.7447 112.066 31.7547 112.089 31.768C112.113 31.7813 112.142 31.7979 112.169 31.8178L112.255 31.8776L112.335 31.0439L112.282 31.0306C111.91 30.9442 111.511 30.9243 111.222 31.0439C111.089 31.1003 110.977 31.18 110.887 31.2797C110.797 31.3793 110.731 31.4989 110.684 31.6384C110.641 31.7746 110.618 31.9241 110.618 32.0868V32.4589H110.017V33.1797H110.618V35.7108L110.621 35.7141Z" fill="white"/>
<path d="M115.663 32.8705C115.514 32.721 115.335 32.6015 115.125 32.5184C114.916 32.4354 114.68 32.3955 114.425 32.3955C114.169 32.3955 113.933 32.4387 113.727 32.5217C113.521 32.6048 113.338 32.7244 113.192 32.8738C113.046 33.0233 112.93 33.2093 112.85 33.4186C112.77 33.6278 112.73 33.8637 112.73 34.1128C112.73 34.3619 112.774 34.5911 112.853 34.7971C112.936 35.003 113.056 35.1824 113.205 35.3285C113.355 35.4747 113.534 35.5909 113.744 35.6706C113.95 35.7504 114.179 35.7935 114.428 35.7935C114.677 35.7935 114.906 35.7537 115.115 35.674C115.325 35.5942 115.504 35.4813 115.657 35.3352C115.806 35.189 115.926 35.0096 116.009 34.8037C116.092 34.5978 116.132 34.3652 116.132 34.1161C116.132 33.867 116.092 33.6278 116.012 33.4186C115.933 33.206 115.816 33.0233 115.67 32.8738L115.663 32.8705ZM114.783 34.9499C114.694 35.0063 114.571 35.0362 114.425 35.0362C114.361 35.0362 114.298 35.0296 114.245 35.0163C114.192 35.003 114.139 34.9797 114.082 34.9432C114.013 34.9 113.959 34.8502 113.92 34.8004C113.876 34.7472 113.843 34.6874 113.817 34.6277C113.79 34.5645 113.77 34.4981 113.757 34.425C113.744 34.3486 113.73 34.2722 113.72 34.1925C113.717 34.1626 113.714 34.1327 113.71 34.1062C113.71 34.0763 113.707 34.0497 113.707 34.0231C113.707 33.9102 113.724 33.8006 113.754 33.6976C113.783 33.5946 113.83 33.5016 113.89 33.4219C113.95 33.3422 114.026 33.2791 114.112 33.2326C114.202 33.1861 114.305 33.1628 114.425 33.1628C114.551 33.1628 114.66 33.1861 114.747 33.2326C114.836 33.2791 114.909 33.3389 114.969 33.4186C115.029 33.495 115.072 33.588 115.102 33.6943C115.132 33.8006 115.149 33.9135 115.149 34.0298C115.149 34.156 115.139 34.2855 115.115 34.4117C115.095 34.5346 115.056 34.6443 115.002 34.7373C114.949 34.8303 114.876 34.9067 114.783 34.9631V34.9499Z" fill="white"/>
<path d="M117.832 34.5048C117.832 34.4284 117.832 34.342 117.836 34.249C117.836 34.1593 117.845 34.0663 117.859 33.9733C117.872 33.8836 117.892 33.794 117.919 33.7109C117.945 33.6279 117.978 33.5548 118.025 33.4917C118.068 33.4319 118.121 33.3821 118.188 33.3455C118.291 33.2891 118.44 33.2824 118.609 33.3024C118.666 33.309 118.719 33.3256 118.769 33.3489L118.859 33.3954V32.4254L118.809 32.4155C118.766 32.4088 118.722 32.4022 118.679 32.3956C118.513 32.3789 118.347 32.3956 118.198 32.4686C118.088 32.5218 117.992 32.5949 117.912 32.6879C117.849 32.7609 117.792 32.8373 117.743 32.9204V32.4587H116.896V35.7106H117.836V34.5015L117.832 34.5048Z" fill="white"/>
<path d="M123.18 33.3287C123.206 33.3885 123.223 33.4549 123.23 33.5313C123.236 33.6144 123.24 33.7007 123.24 33.7871V35.7136H124.18V33.6542C124.18 33.4782 124.163 33.3121 124.133 33.1626C124.1 33.0065 124.043 32.8703 123.964 32.7574C123.884 32.6411 123.771 32.5514 123.635 32.485C123.499 32.4219 123.329 32.3887 123.127 32.3887C123.02 32.3887 122.917 32.402 122.814 32.4252C122.711 32.4485 122.615 32.4883 122.525 32.5348C122.436 32.5813 122.353 32.6444 122.28 32.7175C122.23 32.764 122.187 32.8172 122.15 32.8736C122.057 32.7175 121.941 32.6013 121.805 32.5249C121.642 32.4352 121.446 32.3887 121.227 32.3887C121.021 32.3887 120.831 32.4352 120.665 32.5315C120.549 32.5979 120.439 32.6876 120.346 32.7939V32.4584H119.463V35.7103H120.403V34.1292C120.403 34.0628 120.403 33.993 120.41 33.9166C120.413 33.8436 120.423 33.7672 120.439 33.6908C120.453 33.6177 120.473 33.5446 120.499 33.4748C120.526 33.4084 120.556 33.3519 120.599 33.3021C120.639 33.2556 120.685 33.2158 120.742 33.1859C120.798 33.1593 120.868 33.1427 120.944 33.1427C121.044 33.1427 121.12 33.1593 121.174 33.1925C121.227 33.2257 121.263 33.2689 121.29 33.3221C121.316 33.3785 121.333 33.4483 121.34 33.5247C121.346 33.6077 121.35 33.6941 121.35 33.7804V35.707H122.29V34.1259C122.29 34.0595 122.29 33.9897 122.296 33.9133C122.3 33.8369 122.31 33.7605 122.326 33.6874C122.339 33.6144 122.359 33.5413 122.386 33.4715C122.413 33.4051 122.446 33.3486 122.486 33.2988C122.525 33.2523 122.572 33.2124 122.628 33.1825C122.685 33.1526 122.751 33.1394 122.831 33.1394C122.931 33.1394 123.007 33.156 123.06 33.1892C123.113 33.2224 123.15 33.2656 123.176 33.3187L123.18 33.3287Z" fill="white"/>
<path d="M58.408 40.0392C58.4179 39.9894 58.4379 39.9429 58.4611 39.903C58.4844 39.8632 58.5176 39.83 58.5574 39.8067C58.5973 39.7835 58.6471 39.7702 58.7069 39.7702C58.7401 39.7702 58.7734 39.7702 58.7999 39.7735C58.8265 39.7735 58.8497 39.7801 58.873 39.7901C58.8963 39.7967 58.9195 39.8067 58.9461 39.82C58.9693 39.8333 58.9959 39.8466 59.0258 39.8698L59.0557 39.8898L59.1221 39.2055H59.1055C58.9195 39.159 58.7302 39.1357 58.5475 39.1357C58.3947 39.1357 58.2552 39.1623 58.1389 39.2121C58.0193 39.262 57.9197 39.3317 57.84 39.4214C57.7603 39.5111 57.6971 39.6207 57.6573 39.7436C57.6174 39.8665 57.5975 40.0027 57.5975 40.1522V40.5375H57.0361V41.1354H57.5975V43.5037H58.398V41.1354H59.0623V40.5375H58.398V40.1953C58.398 40.1422 58.4046 40.0891 58.4146 40.0359L58.408 40.0392Z" fill="white"/>
<path d="M62.0155 40.9088C61.8827 40.7726 61.7166 40.663 61.5239 40.5866C61.3313 40.5102 61.1154 40.4736 60.8828 40.4736C60.6503 40.4736 60.4344 40.5135 60.2451 40.5899C60.0558 40.6663 59.8897 40.7759 59.7568 40.9121C59.6206 41.0483 59.5177 41.2177 59.4446 41.407C59.3715 41.5997 59.335 41.8123 59.335 42.0448C59.335 42.2773 59.3748 42.4832 59.4479 42.6692C59.5243 42.8553 59.6306 43.018 59.7668 43.1542C59.903 43.2871 60.069 43.3934 60.2551 43.4664C60.4444 43.5395 60.6537 43.576 60.8795 43.576C61.1054 43.576 61.318 43.5395 61.5073 43.4664C61.6966 43.3934 61.8627 43.2904 61.9989 43.1575C62.1351 43.0247 62.2447 42.8619 62.3178 42.6726C62.3909 42.4832 62.4307 42.274 62.4307 42.0448C62.4307 41.8156 62.3942 41.5964 62.3211 41.407C62.248 41.2144 62.1417 41.0483 62.0089 40.9121L62.0155 40.9088ZM61.2416 42.8586C61.1519 42.915 61.0323 42.9449 60.8862 42.9449C60.8231 42.9449 60.7633 42.9383 60.7101 42.925C60.657 42.9117 60.6005 42.8885 60.5474 42.8519C60.4809 42.8087 60.4245 42.7622 60.3846 42.7091C60.3447 42.656 60.3082 42.5995 60.285 42.5364C60.2584 42.4766 60.2384 42.4102 60.2285 42.3404C60.2152 42.2673 60.2019 42.1942 60.1919 42.1212C60.1886 42.0946 60.1853 42.0647 60.182 42.0381C60.182 42.0116 60.1787 41.985 60.1787 41.9551C60.1787 41.8455 60.1953 41.7392 60.2252 41.6395C60.2551 41.5366 60.3016 41.4469 60.3613 41.3705C60.4211 41.2941 60.4942 41.231 60.5839 41.1811C60.6703 41.1346 60.7766 41.1114 60.8928 41.1114C61.0091 41.1114 61.1253 41.1346 61.2117 41.1811C61.3014 41.2276 61.3744 41.2874 61.4342 41.3638C61.4907 41.4402 61.5372 41.5299 61.5638 41.6329C61.5937 41.7359 61.607 41.8455 61.607 41.9584C61.607 42.0813 61.597 42.2009 61.5771 42.3205C61.5571 42.44 61.5206 42.5463 61.4675 42.6393C61.4143 42.7323 61.3412 42.8054 61.2515 42.8619L61.2416 42.8586Z" fill="white"/>
<path d="M64.6325 40.4773C64.5926 40.474 64.5528 40.4707 64.5129 40.4707C64.4033 40.4707 64.297 40.494 64.2007 40.5438C64.1043 40.5903 64.018 40.6567 63.9449 40.7398C63.8851 40.8095 63.832 40.8826 63.7855 40.9623C63.7589 41.0055 63.739 41.052 63.7224 41.1018V40.5405H63.0049V43.5067H63.8087V42.4139C63.8087 42.3441 63.8087 42.2644 63.812 42.1747C63.812 42.0883 63.822 41.9987 63.8353 41.9123C63.8486 41.8259 63.8652 41.7429 63.8918 41.6599C63.9183 41.5801 63.9516 41.5071 63.9947 41.4439C64.0379 41.3842 64.0944 41.3343 64.1608 41.2978C64.2273 41.2613 64.3103 41.2413 64.4066 41.2413C64.4598 41.2413 64.5196 41.2446 64.576 41.2513C64.6325 41.2579 64.689 41.2745 64.7355 41.2978L64.7654 41.3144V40.4973H64.7487C64.7089 40.4873 64.669 40.4807 64.6292 40.4773H64.6325Z" fill="white"/>
<path d="M70.1099 40.6104C70.0568 40.4709 69.9837 40.338 69.8973 40.2185C69.8076 40.0989 69.6947 39.9926 69.5618 39.9029C69.4489 39.8298 69.3293 39.7667 69.2031 39.7169C69.0769 39.6671 68.944 39.6239 68.8111 39.5907C68.6783 39.5574 68.5388 39.5342 68.4026 39.5209C68.2664 39.5076 68.1335 39.501 68.004 39.501H66.8447V43.5069H67.9475C68.2863 43.5069 68.5986 43.4737 68.8809 43.4039C69.1632 43.3341 69.409 43.2212 69.6117 43.0618C69.8143 42.9057 69.9737 42.6964 70.0866 42.4406C70.1996 42.1882 70.2561 41.8726 70.2561 41.5039C70.2561 41.3545 70.2461 41.2017 70.2228 41.0522C70.2029 40.9027 70.163 40.7532 70.1099 40.6137V40.6104ZM68.1003 42.8392H67.6818V40.1686H68.1003C68.293 40.1686 68.469 40.2018 68.6284 40.2716C68.7846 40.338 68.9208 40.4344 69.0337 40.5506C69.1466 40.6702 69.233 40.8097 69.2928 40.9725C69.3526 41.1352 69.3858 41.3113 69.3858 41.5006C69.3858 41.6899 69.3559 41.866 69.2928 42.0287C69.233 42.1915 69.1433 42.3343 69.0304 42.4539C68.9174 42.5735 68.7812 42.6665 68.6251 42.7363C68.469 42.8027 68.293 42.8392 68.1003 42.8392Z" fill="white"/>
<path d="M73.3651 40.9088C73.2323 40.7726 73.0662 40.663 72.8735 40.5866C72.6809 40.5102 72.465 40.4736 72.2325 40.4736C71.9999 40.4736 71.784 40.5135 71.5947 40.5899C71.4054 40.6663 71.2393 40.7759 71.1064 40.9121C70.9702 41.0483 70.8673 41.2177 70.7942 41.407C70.7211 41.5997 70.6846 41.8123 70.6846 42.0448C70.6846 42.2773 70.7244 42.4832 70.7975 42.6692C70.8739 42.8553 70.9802 43.018 71.1164 43.1542C71.2526 43.2871 71.4187 43.3934 71.6047 43.4664C71.794 43.5395 72.0033 43.576 72.2291 43.576C72.455 43.576 72.6676 43.5395 72.8569 43.4664C73.0463 43.3934 73.2123 43.2904 73.3485 43.1575C73.4847 43.0247 73.5943 42.8619 73.6674 42.6726C73.7405 42.4832 73.7803 42.274 73.7803 42.0448C73.7803 41.8156 73.7438 41.5964 73.6707 41.407C73.5976 41.2144 73.4914 41.0483 73.3585 40.9121L73.3651 40.9088ZM72.5912 42.8586C72.5015 42.915 72.3819 42.9449 72.2358 42.9449C72.1727 42.9449 72.1129 42.9383 72.0597 42.925C72.0066 42.9117 71.9501 42.8885 71.897 42.8519C71.8305 42.8087 71.7741 42.7622 71.7342 42.7091C71.6943 42.656 71.6578 42.5995 71.6346 42.5364C71.608 42.4766 71.5881 42.4102 71.5781 42.3404C71.5648 42.2673 71.5515 42.1942 71.5416 42.1212C71.5382 42.0946 71.5349 42.0647 71.5316 42.0381C71.5316 42.0116 71.5283 41.985 71.5283 41.9551C71.5283 41.8455 71.5449 41.7392 71.5748 41.6395C71.6047 41.5366 71.6512 41.4469 71.711 41.3705C71.7707 41.2941 71.8438 41.231 71.9335 41.1811C72.0199 41.1346 72.1262 41.1114 72.2424 41.1114C72.3587 41.1114 72.4749 41.1346 72.5613 41.1811C72.651 41.2276 72.7241 41.2874 72.7838 41.3638C72.8403 41.4402 72.8868 41.5299 72.9134 41.6329C72.9433 41.7359 72.9566 41.8455 72.9566 41.9584C72.9566 42.0813 72.9466 42.2009 72.9267 42.3205C72.9067 42.44 72.8702 42.5463 72.8171 42.6393C72.7639 42.7323 72.6908 42.8054 72.6012 42.8619L72.5912 42.8586Z" fill="white"/>
<path d="M78.4675 40.7999C78.3944 40.697 78.2981 40.6172 78.1752 40.5575C78.0523 40.501 77.8995 40.4711 77.7168 40.4711C77.6205 40.4711 77.5275 40.4811 77.4344 40.5043C77.3414 40.5276 77.2551 40.5608 77.1754 40.604C77.0956 40.6471 77.0192 40.7036 76.9528 40.7667C76.8963 40.8232 76.8465 40.8863 76.8033 40.9594C76.7137 40.7933 76.6007 40.6671 76.4645 40.5907C76.3184 40.5076 76.1423 40.4678 75.943 40.4678C75.757 40.4678 75.5843 40.511 75.4381 40.5973C75.302 40.6737 75.1824 40.7833 75.0827 40.9162V40.5342H74.332V43.5004H75.1359V42.0622C75.1359 42.0024 75.1359 41.9359 75.1425 41.8595C75.1458 41.7865 75.1558 41.7134 75.1691 41.6436C75.1824 41.5706 75.2023 41.5008 75.2289 41.4377C75.2554 41.3713 75.2853 41.3148 75.3285 41.265C75.3684 41.2151 75.4182 41.1753 75.4747 41.1487C75.5311 41.1188 75.6009 41.1055 75.6806 41.1055C75.7803 41.1055 75.86 41.1221 75.9131 41.1587C75.9663 41.1952 76.0095 41.2384 76.036 41.2982C76.0626 41.358 76.0792 41.4244 76.0859 41.5008C76.0925 41.5805 76.0958 41.6602 76.0958 41.7433V43.5071H76.8997V42.0688C76.8997 42.009 76.8997 41.9426 76.9063 41.8662C76.9096 41.7931 76.9196 41.72 76.9329 41.6503C76.9462 41.5772 76.9661 41.5074 76.9927 41.4443C77.0159 41.3779 77.0491 41.3214 77.089 41.2716C77.1289 41.2218 77.1787 41.1819 77.2352 41.1554C77.2916 41.1255 77.3614 41.1122 77.4411 41.1122C77.5407 41.1122 77.6205 41.1288 77.6736 41.1653C77.7268 41.2019 77.7699 41.245 77.7965 41.3048C77.8231 41.3646 77.8397 41.431 77.8463 41.5074C77.853 41.5838 77.8563 41.6669 77.8563 41.7499V43.5137H78.6601V41.6237C78.6601 41.4609 78.6468 41.3115 78.617 41.172C78.5871 41.0325 78.5372 40.9096 78.4642 40.8066L78.4675 40.7999Z" fill="white"/>
<path d="M81.9292 41.5868C81.906 41.4772 81.8794 41.3675 81.8429 41.2679C81.8063 41.1649 81.7598 41.0653 81.7033 40.9756C81.6436 40.8793 81.5705 40.7995 81.4841 40.7331C81.4011 40.67 81.3081 40.6169 81.2084 40.577C81.1088 40.5371 81.0058 40.5106 80.8962 40.494C80.7899 40.4773 80.6803 40.4707 80.5773 40.4707C80.3448 40.4707 80.1422 40.5139 79.9694 40.5936C79.7967 40.6766 79.6539 40.7896 79.541 40.9291C79.428 41.0686 79.3417 41.238 79.2852 41.4273C79.2287 41.6167 79.2021 41.8193 79.2021 42.0319C79.2021 42.2777 79.2354 42.5002 79.3051 42.6896C79.3716 42.8789 79.4745 43.0417 79.6041 43.1712C79.7336 43.3007 79.8997 43.4004 80.089 43.4668C80.2817 43.5333 80.5009 43.5665 80.75 43.5665C80.9261 43.5665 81.0988 43.5499 81.2715 43.5166C81.4443 43.4834 81.6103 43.4203 81.7631 43.3306L81.7731 43.324V42.653L81.7432 42.673C81.597 42.7593 81.4443 42.8291 81.2815 42.8855C81.1221 42.9387 80.9527 42.9686 80.7832 42.9686C80.6703 42.9686 80.5673 42.952 80.471 42.9188C80.3747 42.8855 80.2916 42.839 80.2219 42.7792C80.1521 42.7195 80.0923 42.6431 80.0492 42.5534C80.0093 42.4703 79.9827 42.3773 79.9728 42.271H81.9923V42.2279C81.9923 42.1249 81.989 42.0186 81.979 41.909C81.9691 41.7994 81.9525 41.6864 81.9325 41.5768L81.9292 41.5868ZM79.9694 41.713C79.9794 41.6266 79.996 41.5436 80.0259 41.4672C80.0558 41.3875 80.1023 41.3144 80.1555 41.2579C80.2086 41.1981 80.2784 41.1516 80.3548 41.1184C80.4312 41.0852 80.5208 41.0686 80.6238 41.0686C80.7268 41.0686 80.8131 41.0852 80.8862 41.1184C80.9593 41.1516 81.0191 41.1981 81.0689 41.2579C81.1154 41.3177 81.1553 41.3875 81.1785 41.4705C81.2018 41.5469 81.2151 41.6266 81.2217 41.713H79.9728H79.9694Z" fill="white"/>
<path d="M84.3039 42.0049C84.2408 41.9384 84.1677 41.8853 84.088 41.8421C84.0083 41.7989 83.9252 41.7657 83.8422 41.7358C83.7592 41.7092 83.6794 41.6827 83.5964 41.6594C83.5167 41.6362 83.4469 41.6129 83.3871 41.5897C83.3273 41.5631 83.2808 41.5365 83.2443 41.5C83.2111 41.4668 83.1945 41.4269 83.1945 41.3738C83.1945 41.314 83.2078 41.2675 83.231 41.2276C83.2576 41.1877 83.2908 41.1579 83.3307 41.1346C83.3705 41.1113 83.417 41.0947 83.4668 41.0848C83.52 41.0748 83.5698 41.0715 83.6196 41.0715C83.7425 41.0715 83.8555 41.0815 83.9618 41.1014C84.0681 41.1213 84.1777 41.1512 84.2939 41.1944L84.3205 41.2044L84.3737 40.6065V40.5899L84.357 40.5865C84.2175 40.55 84.078 40.5234 83.9452 40.5035C83.6761 40.467 83.3772 40.4603 83.0981 40.5301C82.9586 40.5633 82.8324 40.6197 82.7228 40.6928C82.6132 40.7659 82.5235 40.8655 82.4571 40.9818C82.3906 41.0981 82.3574 41.2409 82.3574 41.4037C82.3574 41.5199 82.374 41.6229 82.4039 41.7059C82.4338 41.789 82.477 41.862 82.5268 41.9218C82.5766 41.9816 82.6398 42.0314 82.7062 42.0746C82.7726 42.1145 82.8457 42.151 82.9188 42.1776C82.9919 42.2042 83.0649 42.2307 83.138 42.2474C83.2078 42.2673 83.2775 42.2872 83.3439 42.3071C83.4071 42.3271 83.4668 42.3503 83.5167 42.3769C83.5632 42.4001 83.603 42.43 83.6296 42.4666C83.6495 42.4898 83.6595 42.5164 83.6661 42.5496C83.6728 42.5828 83.6761 42.6127 83.6761 42.6426C83.6761 42.7024 83.6628 42.7556 83.6329 42.7954C83.603 42.8386 83.5665 42.8718 83.52 42.9017C83.4735 42.9283 83.4203 42.9482 83.3672 42.9615C83.3107 42.9748 83.2543 42.9814 83.2011 42.9814C82.942 42.9814 82.6896 42.9183 82.4571 42.7888L82.4272 42.7722L82.3774 43.4465H82.394C82.5335 43.4896 82.6796 43.5195 82.8224 43.5428C82.9653 43.566 83.1148 43.576 83.2609 43.576C83.4071 43.576 83.5665 43.5594 83.7127 43.5229C83.8621 43.4896 83.995 43.4332 84.1146 43.3535C84.2308 43.2771 84.3272 43.1741 84.4002 43.0512C84.4733 42.9283 84.5098 42.7755 84.5098 42.5994C84.5098 42.4633 84.4899 42.3437 84.4534 42.2474C84.4135 42.151 84.3637 42.068 84.3006 42.0015L84.3039 42.0049Z" fill="white"/>
<path d="M86.7881 42.8653C86.7383 42.8952 86.6851 42.9152 86.6287 42.9251C86.5689 42.9351 86.5124 42.9417 86.4526 42.9417C86.3895 42.9417 86.3364 42.9284 86.2932 42.9052C86.25 42.8819 86.2168 42.8487 86.1902 42.8089C86.1637 42.769 86.1437 42.7225 86.1338 42.6694C86.1205 42.6162 86.1172 42.5597 86.1172 42.5033V41.1381H86.7948V40.5402H86.1172V39.7031L85.3266 39.9556H85.3133V40.5402H84.752V41.1381H85.3133V42.6062C85.3133 42.759 85.3332 42.8952 85.3731 43.0148C85.413 43.1344 85.4728 43.2374 85.5525 43.3204C85.6322 43.4034 85.7318 43.4665 85.8514 43.5097C85.9677 43.5529 86.1072 43.5762 86.26 43.5762C86.353 43.5762 86.4493 43.5728 86.5456 43.5629C86.642 43.5529 86.7383 43.5363 86.828 43.5064H86.8446L86.8213 42.8487L86.7914 42.8686L86.7881 42.8653Z" fill="white"/>
<path d="M88.09 39.2812H87.2861V40.0485H88.09V39.2812Z" fill="white"/>
<path d="M88.09 40.54H87.2861V43.5063H88.09V40.54Z" fill="white"/>
<path d="M90.8444 42.8054C90.7647 42.842 90.6684 42.8752 90.5621 42.9018C90.3063 42.9649 90.0838 42.9516 89.9243 42.8652C89.828 42.8154 89.7483 42.7456 89.6852 42.6593C89.6221 42.5729 89.5756 42.4733 89.5457 42.3603C89.5158 42.2474 89.4992 42.1311 89.4992 42.0082C89.4992 41.8853 89.5158 41.7757 89.5457 41.6661C89.5756 41.5565 89.6221 41.4602 89.6852 41.3771C89.7483 41.2941 89.8247 41.2276 89.9177 41.1778C90.0107 41.128 90.1236 41.1014 90.2532 41.1014C90.3395 41.1014 90.4292 41.1081 90.5156 41.1214C90.6019 41.1346 90.6817 41.1645 90.7581 41.2077L90.7846 41.2243L90.8577 40.5932V40.5766L90.8444 40.57C90.7248 40.5334 90.6019 40.5069 90.4757 40.4936C90.3495 40.4803 90.2233 40.4736 90.1004 40.4736C89.8745 40.4736 89.6686 40.5135 89.4892 40.5899C89.3098 40.6663 89.1603 40.7759 89.0374 40.9121C88.9145 41.0483 88.8215 41.211 88.7584 41.4004C88.6953 41.5864 88.6621 41.7923 88.6621 42.0082C88.6621 42.2241 88.6953 42.4434 88.7584 42.6327C88.8215 42.822 88.9179 42.9914 89.0408 43.1276C89.1637 43.2671 89.3198 43.3768 89.5025 43.4532C89.6852 43.5295 89.8944 43.5694 90.1303 43.5694C90.2532 43.5694 90.3827 43.5628 90.5156 43.5495C90.6484 43.5362 90.7747 43.5096 90.8943 43.4731H90.9109L90.8743 42.7888L90.8477 42.8021L90.8444 42.8054Z" fill="white"/>
<path d="M95.2419 41.7829C95.2154 41.7364 95.1855 41.6933 95.1489 41.6534C95.1124 41.6135 95.0725 41.5836 95.0293 41.5571C95.0061 41.5438 94.9795 41.5305 94.9496 41.5205C95.0426 41.5006 95.1323 41.4707 95.212 41.4309C95.315 41.3777 95.4047 41.3113 95.4778 41.2316C95.5508 41.1518 95.6073 41.0555 95.6472 40.9492C95.687 40.8429 95.707 40.7233 95.707 40.5971C95.707 40.4244 95.6837 40.2749 95.6405 40.152C95.594 40.0291 95.5309 39.9261 95.4545 39.8464C95.3748 39.7667 95.2818 39.7003 95.1722 39.6538C95.0659 39.6073 94.9496 39.5741 94.8267 39.5508C94.7038 39.5276 94.5776 39.5143 94.4447 39.5076C94.3119 39.501 94.179 39.501 94.0495 39.501H92.9434V43.5069H93.7804V41.8593H94.0129C94.096 41.8593 94.1657 41.866 94.2222 41.8793C94.2753 41.8926 94.3218 41.9158 94.3617 41.9457C94.4016 41.9756 94.4348 42.0155 94.4614 42.0653C94.4912 42.1184 94.5178 42.1815 94.5477 42.2546L95.026 43.4903L95.0327 43.5036H95.9627L95.315 41.9258C95.2951 41.876 95.2718 41.8261 95.2453 41.7829H95.2419ZM93.7804 40.1686H94.0196C94.1126 40.1686 94.2122 40.1686 94.3119 40.1753C94.4082 40.1819 94.4979 40.1985 94.5776 40.2317C94.654 40.2616 94.7171 40.3115 94.7669 40.3779C94.8134 40.4443 94.84 40.5373 94.84 40.6602C94.84 40.7034 94.8367 40.7532 94.8267 40.8064C94.8168 40.8562 94.8002 40.9027 94.7769 40.9392C94.7404 40.9924 94.6939 41.0356 94.6374 41.0688C94.5776 41.102 94.5112 41.1286 94.4414 41.1452C94.3717 41.1618 94.2986 41.1751 94.2255 41.1817C94.1491 41.1884 94.0827 41.1884 94.0229 41.1884H93.7837V40.162L93.7804 40.1686Z" fill="white"/>
<path d="M98.9517 41.5868C98.9284 41.4772 98.9019 41.3675 98.8653 41.2679C98.8288 41.1649 98.7823 41.0653 98.7258 40.9756C98.666 40.8793 98.5929 40.7995 98.5066 40.7331C98.4235 40.67 98.3305 40.6169 98.2309 40.577C98.1312 40.5371 98.0283 40.5106 97.9186 40.494C97.8124 40.4773 97.7027 40.4707 97.5998 40.4707C97.3672 40.4707 97.1646 40.5139 96.9919 40.5936C96.8192 40.6766 96.6763 40.7896 96.5634 40.9291C96.4505 41.0686 96.3641 41.238 96.3077 41.4273C96.2512 41.6167 96.2246 41.8193 96.2246 42.0319C96.2246 42.2777 96.2578 42.5002 96.3276 42.6896C96.394 42.8789 96.497 43.0417 96.6265 43.1712C96.7561 43.3007 96.9221 43.4004 97.1115 43.4668C97.3041 43.5333 97.5234 43.5665 97.7725 43.5665C97.9485 43.5665 98.1213 43.5499 98.294 43.5166C98.4667 43.4834 98.6328 43.4203 98.7856 43.3306L98.7956 43.324V42.653L98.7657 42.673C98.6195 42.7593 98.4667 42.8291 98.304 42.8855C98.1445 42.9387 97.9751 42.9686 97.8057 42.9686C97.6928 42.9686 97.5898 42.952 97.4935 42.9188C97.3972 42.8855 97.3141 42.839 97.2444 42.7792C97.1746 42.7195 97.1148 42.6431 97.0716 42.5534C97.0318 42.4703 97.0052 42.3773 96.9952 42.271H99.0148V42.2279C99.0148 42.1249 99.0115 42.0186 99.0015 41.909C98.9915 41.7994 98.9749 41.6864 98.955 41.5768L98.9517 41.5868ZM96.9919 41.713C97.0019 41.6266 97.0185 41.5436 97.0484 41.4672C97.0783 41.3875 97.1248 41.3144 97.1779 41.2579C97.2311 41.1981 97.3008 41.1516 97.3772 41.1184C97.4536 41.0852 97.5433 41.0686 97.6463 41.0686C97.7492 41.0686 97.8356 41.0852 97.9087 41.1184C97.9818 41.1516 98.0415 41.1981 98.0914 41.2579C98.1379 41.3177 98.1777 41.3875 98.201 41.4705C98.2242 41.5469 98.2375 41.6266 98.2442 41.713H96.9952H96.9919Z" fill="white"/>
<path d="M101.563 42.8054C101.483 42.842 101.387 42.8752 101.281 42.9018C101.025 42.9649 100.803 42.9516 100.643 42.8652C100.547 42.8154 100.467 42.7456 100.404 42.6593C100.341 42.5729 100.294 42.4733 100.264 42.3603C100.235 42.2474 100.218 42.1311 100.218 42.0082C100.218 41.8853 100.235 41.7757 100.264 41.6661C100.294 41.5565 100.341 41.4602 100.404 41.3771C100.467 41.2941 100.543 41.2276 100.636 41.1778C100.729 41.128 100.842 41.1014 100.972 41.1014C101.058 41.1014 101.148 41.1081 101.234 41.1214C101.321 41.1346 101.4 41.1645 101.477 41.2077L101.503 41.2243L101.576 40.5932V40.5766L101.563 40.57C101.444 40.5334 101.321 40.5069 101.194 40.4936C101.068 40.4803 100.942 40.4736 100.819 40.4736C100.593 40.4736 100.387 40.5135 100.208 40.5899C100.029 40.6663 99.8791 40.7759 99.7562 40.9121C99.6333 41.0483 99.5403 41.211 99.4772 41.4004C99.4141 41.5864 99.3809 41.7923 99.3809 42.0082C99.3809 42.2241 99.4141 42.4434 99.4772 42.6327C99.5403 42.822 99.6366 42.9914 99.7595 43.1276C99.8824 43.2671 100.039 43.3768 100.221 43.4532C100.404 43.5295 100.613 43.5694 100.849 43.5694C100.972 43.5694 101.101 43.5628 101.234 43.5495C101.367 43.5362 101.493 43.5096 101.613 43.4731H101.63L101.593 42.7888L101.566 42.8021L101.563 42.8054Z" fill="white"/>
<path d="M103.732 40.4773C103.692 40.474 103.652 40.4707 103.613 40.4707C103.503 40.4707 103.397 40.494 103.3 40.5438C103.204 40.5903 103.118 40.6567 103.045 40.7398C102.985 40.8095 102.932 40.8826 102.885 40.9623C102.858 41.0055 102.839 41.052 102.822 41.1018V40.5405H102.104V43.5067H102.908V42.4139C102.908 42.3441 102.908 42.2644 102.912 42.1747C102.912 42.0883 102.922 41.9987 102.935 41.9123C102.948 41.8259 102.965 41.7429 102.991 41.6599C103.018 41.5801 103.051 41.5071 103.094 41.4439C103.138 41.3842 103.194 41.3343 103.26 41.2978C103.327 41.2613 103.41 41.2413 103.506 41.2413C103.559 41.2413 103.619 41.2446 103.676 41.2513C103.732 41.2579 103.789 41.2745 103.835 41.2978L103.865 41.3144V40.4973H103.848C103.808 40.4873 103.769 40.4807 103.729 40.4773H103.732Z" fill="white"/>
<path d="M106.224 41.9916C106.224 42.0979 106.214 42.2075 106.194 42.3204C106.174 42.4334 106.137 42.5363 106.091 42.6293C106.041 42.7224 105.974 42.7988 105.891 42.8552C105.808 42.915 105.702 42.9416 105.576 42.9416C105.48 42.9416 105.397 42.9183 105.327 42.8718C105.257 42.8253 105.204 42.7556 105.171 42.6659C105.144 42.6028 105.131 42.533 105.131 42.4666C105.131 42.3935 105.124 42.3238 105.118 42.254C105.118 42.2308 105.114 42.2075 105.111 42.1876C105.111 42.1676 105.108 42.1477 105.108 42.1245V40.5434H104.304V42.4101C104.304 42.5729 104.324 42.7257 104.363 42.8652C104.403 43.008 104.466 43.1309 104.546 43.2372C104.629 43.3435 104.736 43.4265 104.862 43.4863C104.988 43.5461 105.144 43.576 105.317 43.576C105.513 43.576 105.695 43.5362 105.862 43.4531C106.018 43.3767 106.151 43.2704 106.267 43.1342V43.5063H107.031V40.54H106.23V41.9916H106.224Z" fill="white"/>
<path d="M108.585 39.2812H107.781V40.0485H108.585V39.2812Z" fill="white"/>
<path d="M108.585 40.54H107.781V43.5063H108.585V40.54Z" fill="white"/>
<path d="M111.066 42.8653C111.017 42.8952 110.963 42.9152 110.907 42.9251C110.847 42.9351 110.791 42.9417 110.731 42.9417C110.668 42.9417 110.615 42.9284 110.572 42.9052C110.528 42.8819 110.495 42.8487 110.469 42.8089C110.442 42.769 110.422 42.7225 110.412 42.6694C110.399 42.6162 110.395 42.5597 110.395 42.5033V41.1381H111.073V40.5402H110.395V39.7031L109.605 39.9556H109.592V40.5402H109.03V41.1381H109.592V42.6062C109.592 42.759 109.612 42.8952 109.651 43.0148C109.691 43.1344 109.751 43.2374 109.831 43.3204C109.911 43.4034 110.01 43.4665 110.13 43.5097C110.246 43.5529 110.386 43.5762 110.538 43.5762C110.631 43.5762 110.728 43.5728 110.824 43.5629C110.92 43.5529 111.017 43.5363 111.106 43.5064H111.123L111.1 42.8487L111.07 42.8686L111.066 42.8653Z" fill="white"/>
<path d="M115.676 40.7999C115.603 40.697 115.507 40.6172 115.384 40.5575C115.261 40.501 115.108 40.4711 114.926 40.4711C114.829 40.4711 114.736 40.4811 114.643 40.5043C114.55 40.5276 114.464 40.5608 114.384 40.604C114.305 40.6471 114.228 40.7036 114.162 40.7667C114.105 40.8232 114.056 40.8863 114.012 40.9594C113.923 40.7933 113.81 40.6671 113.674 40.5907C113.527 40.5076 113.351 40.4678 113.152 40.4678C112.966 40.4678 112.793 40.511 112.647 40.5973C112.511 40.6737 112.391 40.7833 112.292 40.9162V40.5342H111.541V43.5004H112.345V42.0622C112.345 42.0024 112.345 41.9359 112.351 41.8595C112.355 41.7865 112.365 41.7134 112.378 41.6436C112.391 41.5706 112.411 41.5008 112.438 41.4377C112.464 41.3713 112.494 41.3148 112.538 41.265C112.577 41.2151 112.627 41.1753 112.684 41.1487C112.74 41.1188 112.81 41.1055 112.89 41.1055C112.989 41.1055 113.069 41.1221 113.122 41.1587C113.175 41.1952 113.218 41.2384 113.245 41.2982C113.272 41.358 113.288 41.4244 113.295 41.5008C113.301 41.5805 113.305 41.6602 113.305 41.7433V43.5071H114.109V42.0688C114.109 42.009 114.109 41.9426 114.115 41.8662C114.119 41.7931 114.129 41.72 114.142 41.6503C114.155 41.5772 114.175 41.5074 114.202 41.4443C114.225 41.3779 114.258 41.3214 114.298 41.2716C114.338 41.2218 114.388 41.1819 114.444 41.1554C114.501 41.1255 114.57 41.1122 114.65 41.1122C114.75 41.1122 114.829 41.1288 114.883 41.1653C114.936 41.2019 114.979 41.245 115.005 41.3048C115.032 41.3646 115.049 41.431 115.055 41.5074C115.062 41.5838 115.065 41.6669 115.065 41.7499V43.5137H115.869V41.6237C115.869 41.4609 115.856 41.3115 115.826 41.172C115.796 41.0325 115.746 40.9096 115.673 40.8066L115.676 40.7999Z" fill="white"/>
<path d="M119.138 41.5868C119.115 41.4772 119.088 41.3675 119.052 41.2679C119.015 41.1649 118.969 41.0653 118.912 40.9756C118.853 40.8793 118.779 40.7995 118.693 40.7331C118.61 40.67 118.517 40.6169 118.417 40.577C118.318 40.5371 118.215 40.5106 118.105 40.494C117.999 40.4773 117.889 40.4707 117.786 40.4707C117.554 40.4707 117.351 40.5139 117.178 40.5936C117.006 40.6766 116.863 40.7896 116.75 40.9291C116.637 41.0686 116.551 41.238 116.494 41.4273C116.438 41.6167 116.411 41.8193 116.411 42.0319C116.411 42.2777 116.444 42.5002 116.514 42.6896C116.581 42.8789 116.684 43.0417 116.813 43.1712C116.943 43.3007 117.109 43.4004 117.298 43.4668C117.491 43.5333 117.71 43.5665 117.959 43.5665C118.135 43.5665 118.308 43.5499 118.481 43.5166C118.653 43.4834 118.819 43.4203 118.972 43.3306L118.982 43.324V42.653L118.952 42.673C118.806 42.7593 118.653 42.8291 118.49 42.8855C118.331 42.9387 118.162 42.9686 117.992 42.9686C117.879 42.9686 117.776 42.952 117.68 42.9188C117.584 42.8855 117.501 42.839 117.431 42.7792C117.361 42.7195 117.301 42.6431 117.258 42.5534C117.218 42.4703 117.192 42.3773 117.182 42.271H119.201V42.2279C119.201 42.1249 119.198 42.0186 119.188 41.909C119.178 41.7994 119.161 41.6864 119.142 41.5768L119.138 41.5868ZM117.178 41.713C117.188 41.6266 117.205 41.5436 117.235 41.4672C117.265 41.3875 117.311 41.3144 117.364 41.2579C117.418 41.1981 117.487 41.1516 117.564 41.1184C117.64 41.0852 117.73 41.0686 117.833 41.0686C117.936 41.0686 118.022 41.0852 118.095 41.1184C118.168 41.1516 118.228 41.1981 118.278 41.2579C118.324 41.3177 118.364 41.3875 118.388 41.4705C118.411 41.5469 118.424 41.6266 118.431 41.713H117.182H117.178Z" fill="white"/>
<path d="M122.244 40.8091C122.164 40.7061 122.058 40.6231 121.928 40.5633C121.798 40.5035 121.646 40.4736 121.466 40.4736C121.264 40.4736 121.078 40.5135 120.918 40.5899C120.769 40.663 120.633 40.7726 120.513 40.9187V40.5401H119.749V43.5063H120.553V42.0547C120.553 41.9518 120.563 41.8421 120.586 41.7292C120.609 41.6196 120.646 41.5133 120.696 41.4203C120.746 41.3273 120.812 41.2509 120.895 41.1911C120.975 41.1313 121.078 41.1014 121.201 41.1014C121.31 41.1014 121.397 41.1214 121.463 41.1579C121.526 41.1944 121.579 41.2675 121.616 41.3705C121.649 41.4635 121.666 41.5532 121.672 41.6395C121.676 41.7259 121.679 41.8222 121.679 41.9185V43.4997H122.479V41.6329C122.479 41.4701 122.459 41.314 122.423 41.1745C122.386 41.0317 122.327 40.9088 122.244 40.8025V40.8091Z" fill="white"/>
<path d="M124.974 42.8454L124.944 42.8653C124.895 42.8952 124.841 42.9152 124.785 42.9251C124.725 42.9351 124.669 42.9417 124.609 42.9417C124.546 42.9417 124.493 42.9284 124.449 42.9052C124.406 42.8819 124.373 42.8487 124.346 42.8089C124.32 42.769 124.3 42.7225 124.29 42.6694C124.277 42.6162 124.273 42.5597 124.273 42.5033V41.1381H124.951V40.5402H124.273V39.7031L123.483 39.9556H123.47V40.5402H122.908V41.1381H123.47V42.6062C123.47 42.759 123.489 42.8952 123.529 43.0148C123.569 43.1344 123.629 43.2374 123.709 43.3204C123.788 43.4034 123.888 43.4665 124.008 43.5097C124.124 43.5529 124.263 43.5762 124.416 43.5762C124.509 43.5762 124.606 43.5728 124.702 43.5629C124.798 43.5529 124.895 43.5363 124.984 43.5064H125.001L124.978 42.8487L124.974 42.8454Z" fill="white"/>
</g>
<defs>
<linearGradient id="paint0_linear_480_6664" x1="32.4089" y1="42.8861" x2="23.4139" y2="42.8861" gradientUnits="userSpaceOnUse">
<stop offset="0.01" stop-color="#6E6F70" stop-opacity="0.5"/>
<stop offset="0.18" stop-color="#6E6F70" stop-opacity="0.3"/>
<stop offset="0.39" stop-color="#6E6F70" stop-opacity="0.08"/>
<stop offset="0.52" stop-color="#6E6F70" stop-opacity="0"/>
<stop offset="1" stop-color="#6E6F70" stop-opacity="0.5"/>
</linearGradient>
<linearGradient id="paint1_linear_480_6664" x1="23.408" y1="30.7987" x2="23.408" y2="43.4176" gradientUnits="userSpaceOnUse">
<stop offset="0.01" stop-color="#1C4E74" stop-opacity="0.5"/>
<stop offset="0.18" stop-color="#1C4E74" stop-opacity="0.29"/>
<stop offset="0.39" stop-color="#1C4E74" stop-opacity="0.08"/>
<stop offset="0.52" stop-color="#1C4E74" stop-opacity="0"/>
</linearGradient>
<linearGradient id="paint2_linear_480_6664" x1="23.1356" y1="30.7987" x2="23.1356" y2="43.4176" gradientUnits="userSpaceOnUse">
<stop offset="0.01" stop-color="#1C4E74" stop-opacity="0.5"/>
<stop offset="0.18" stop-color="#1C4E74" stop-opacity="0.29"/>
<stop offset="0.39" stop-color="#1C4E74" stop-opacity="0.08"/>
<stop offset="0.52" stop-color="#1C4E74" stop-opacity="0"/>
</linearGradient>
<linearGradient id="paint3_linear_480_6664" x1="32.4093" y1="4471.32" x2="23.4146" y2="4471.32" gradientUnits="userSpaceOnUse">
<stop offset="0.01" stop-color="#6E6F70" stop-opacity="0.5"/>
<stop offset="0.18" stop-color="#6E6F70" stop-opacity="0.3"/>
<stop offset="0.39" stop-color="#6E6F70" stop-opacity="0.08"/>
<stop offset="0.52" stop-color="#6E6F70" stop-opacity="0"/>
<stop offset="1" stop-color="#6E6F70" stop-opacity="0.5"/>
</linearGradient>
<linearGradient id="paint4_linear_480_6664" x1="23.4313" y1="30.8021" x2="23.4313" y2="43.4174" gradientUnits="userSpaceOnUse">
<stop offset="0.01" stop-color="#1C4E74" stop-opacity="0.5"/>
<stop offset="0.18" stop-color="#1C4E74" stop-opacity="0.29"/>
<stop offset="0.39" stop-color="#1C4E74" stop-opacity="0.08"/>
<stop offset="0.52" stop-color="#1C4E74" stop-opacity="0"/>
</linearGradient>
<linearGradient id="paint5_linear_480_6664" x1="3.64746" y1="41.0292" x2="19.7508" y2="41.0292" gradientUnits="userSpaceOnUse">
<stop offset="0.01" stop-color="#6E6F70" stop-opacity="0.5"/>
<stop offset="0.18" stop-color="#6E6F70" stop-opacity="0.3"/>
<stop offset="0.39" stop-color="#6E6F70" stop-opacity="0.08"/>
<stop offset="0.52" stop-color="#6E6F70" stop-opacity="0"/>
<stop offset="1" stop-color="#6E6F70" stop-opacity="0.5"/>
</linearGradient>
<linearGradient id="paint6_linear_480_6664" x1="32.4061" y1="39.2084" x2="23.4144" y2="39.2084" gradientUnits="userSpaceOnUse">
<stop offset="0.01" stop-color="#6E6F70" stop-opacity="0.5"/>
<stop offset="0.18" stop-color="#6E6F70" stop-opacity="0.3"/>
<stop offset="0.39" stop-color="#6E6F70" stop-opacity="0.08"/>
<stop offset="0.52" stop-color="#6E6F70" stop-opacity="0"/>
<stop offset="1" stop-color="#6E6F70" stop-opacity="0.5"/>
</linearGradient>
<linearGradient id="paint7_linear_480_6664" x1="32.4089" y1="42.8861" x2="23.4139" y2="42.8861" gradientUnits="userSpaceOnUse">
<stop offset="0.01" stop-color="#6E6F70" stop-opacity="0.5"/>
<stop offset="0.18" stop-color="#6E6F70" stop-opacity="0.3"/>
<stop offset="0.39" stop-color="#6E6F70" stop-opacity="0.08"/>
<stop offset="0.52" stop-color="#6E6F70" stop-opacity="0"/>
<stop offset="1" stop-color="#6E6F70" stop-opacity="0.5"/>
</linearGradient>
<linearGradient id="paint8_linear_480_6664" x1="1206.75" y1="41.0453" x2="23.4145" y2="41.0453" gradientUnits="userSpaceOnUse">
<stop offset="0.01" stop-color="#6E6F70" stop-opacity="0.5"/>
<stop offset="0.18" stop-color="#6E6F70" stop-opacity="0.3"/>
<stop offset="0.39" stop-color="#6E6F70" stop-opacity="0.08"/>
<stop offset="0.52" stop-color="#6E6F70" stop-opacity="0"/>
<stop offset="1" stop-color="#6E6F70" stop-opacity="0.5"/>
</linearGradient>
<linearGradient id="paint9_linear_480_6664" x1="32.409" y1="27.1609" x2="19.7937" y2="27.1609" gradientUnits="userSpaceOnUse">
<stop offset="0.01" stop-color="#6E6F70" stop-opacity="0.5"/>
<stop offset="0.18" stop-color="#6E6F70" stop-opacity="0.3"/>
<stop offset="0.39" stop-color="#6E6F70" stop-opacity="0.08"/>
<stop offset="0.52" stop-color="#6E6F70" stop-opacity="0"/>
</linearGradient>
<linearGradient id="paint10_linear_480_6664" x1="32.4061" y1="30.8016" x2="19.7906" y2="30.8016" gradientUnits="userSpaceOnUse">
<stop offset="0.01" stop-color="#6E6F70" stop-opacity="0.5"/>
<stop offset="0.18" stop-color="#6E6F70" stop-opacity="0.3"/>
<stop offset="0.39" stop-color="#6E6F70" stop-opacity="0.08"/>
<stop offset="0.52" stop-color="#6E6F70" stop-opacity="0"/>
</linearGradient>
<linearGradient id="paint11_linear_480_6664" x1="32.4095" y1="30.785" x2="19.7906" y2="30.785" gradientUnits="userSpaceOnUse">
<stop offset="0.01" stop-color="#6E6F70" stop-opacity="0.5"/>
<stop offset="0.18" stop-color="#6E6F70" stop-opacity="0.3"/>
<stop offset="0.39" stop-color="#6E6F70" stop-opacity="0.08"/>
<stop offset="0.52" stop-color="#6E6F70" stop-opacity="0"/>
</linearGradient>
<linearGradient id="paint12_linear_480_6664" x1="32.4115" y1="30.8018" x2="19.7889" y2="30.8018" gradientUnits="userSpaceOnUse">
<stop offset="0.01" stop-color="#6E6F70" stop-opacity="0.5"/>
<stop offset="0.18" stop-color="#6E6F70" stop-opacity="0.3"/>
<stop offset="0.39" stop-color="#6E6F70" stop-opacity="0.08"/>
<stop offset="0.52" stop-color="#6E6F70" stop-opacity="0"/>
</linearGradient>
<linearGradient id="paint13_linear_480_6664" x1="32.4091" y1="27.4665" x2="19.7902" y2="27.4665" gradientUnits="userSpaceOnUse">
<stop offset="0.01" stop-color="#6E6F70" stop-opacity="0.5"/>
<stop offset="0.18" stop-color="#6E6F70" stop-opacity="0.3"/>
<stop offset="0.39" stop-color="#6E6F70" stop-opacity="0.08"/>
<stop offset="0.52" stop-color="#6E6F70" stop-opacity="0"/>
</linearGradient>
<linearGradient id="paint14_linear_480_6664" x1="1206.75" y1="28.9712" x2="19.7902" y2="28.9712" gradientUnits="userSpaceOnUse">
<stop offset="0.01" stop-color="#6E6F70" stop-opacity="0.5"/>
<stop offset="0.18" stop-color="#6E6F70" stop-opacity="0.3"/>
<stop offset="0.39" stop-color="#6E6F70" stop-opacity="0.08"/>
<stop offset="0.52" stop-color="#6E6F70" stop-opacity="0"/>
</linearGradient>
<linearGradient id="paint15_linear_480_6664" x1="32.4095" y1="28.9779" x2="19.7906" y2="28.9779" gradientUnits="userSpaceOnUse">
<stop offset="0.01" stop-color="#6E6F70" stop-opacity="0.5"/>
<stop offset="0.18" stop-color="#6E6F70" stop-opacity="0.3"/>
<stop offset="0.39" stop-color="#6E6F70" stop-opacity="0.08"/>
<stop offset="0.52" stop-color="#6E6F70" stop-opacity="0"/>
</linearGradient>
<linearGradient id="paint16_linear_480_6664" x1="3.64043" y1="17.5883" x2="3.64043" y2="12.6191" gradientUnits="userSpaceOnUse">
<stop stop-color="#1C4E74" stop-opacity="0"/>
<stop offset="1" stop-color="#1C4E74" stop-opacity="0.5"/>
</linearGradient>
<linearGradient id="paint17_linear_480_6664" x1="0.00996488" y1="17.5848" x2="0.00996488" y2="12.6156" gradientUnits="userSpaceOnUse">
<stop stop-color="#1C4E74" stop-opacity="0"/>
<stop offset="1" stop-color="#1C4E74" stop-opacity="0.5"/>
</linearGradient>
<linearGradient id="paint18_linear_480_6664" x1="1.82397" y1="29.2209" x2="1.82397" y2="13.5295" gradientUnits="userSpaceOnUse">
<stop offset="0.39" stop-color="#5A5A5C" stop-opacity="0"/>
<stop offset="1" stop-color="#6E6F70" stop-opacity="0.5"/>
</linearGradient>
<linearGradient id="paint19_linear_480_6664" x1="23.4111" y1="30.7986" x2="23.4111" y2="43.4175" gradientUnits="userSpaceOnUse">
<stop offset="0.01" stop-color="#1C4E74" stop-opacity="0.5"/>
<stop offset="0.18" stop-color="#1C4E74" stop-opacity="0.29"/>
<stop offset="0.39" stop-color="#1C4E74" stop-opacity="0.08"/>
<stop offset="0.52" stop-color="#1C4E74" stop-opacity="0"/>
</linearGradient>
<linearGradient id="paint20_linear_480_6664" x1="19.7799" y1="30.7982" x2="19.7799" y2="43.4172" gradientUnits="userSpaceOnUse">
<stop offset="0.01" stop-color="#1C4E74" stop-opacity="0.5"/>
<stop offset="0.18" stop-color="#1C4E74" stop-opacity="0.29"/>
<stop offset="0.39" stop-color="#1C4E74" stop-opacity="0.08"/>
<stop offset="0.52" stop-color="#1C4E74" stop-opacity="0"/>
</linearGradient>
<linearGradient id="paint21_linear_480_6664" x1="23.408" y1="30.7987" x2="23.408" y2="43.4176" gradientUnits="userSpaceOnUse">
<stop offset="0.01" stop-color="#1C4E74" stop-opacity="0.5"/>
<stop offset="0.18" stop-color="#1C4E74" stop-opacity="0.29"/>
<stop offset="0.39" stop-color="#1C4E74" stop-opacity="0.08"/>
<stop offset="0.52" stop-color="#1C4E74" stop-opacity="0"/>
</linearGradient>
<linearGradient id="paint22_linear_480_6664" x1="19.7908" y1="30.7979" x2="19.7908" y2="43.4168" gradientUnits="userSpaceOnUse">
<stop offset="0.01" stop-color="#1C4E74" stop-opacity="0.5"/>
<stop offset="0.18" stop-color="#1C4E74" stop-opacity="0.29"/>
<stop offset="0.39" stop-color="#1C4E74" stop-opacity="0.08"/>
<stop offset="0.52" stop-color="#1C4E74" stop-opacity="0"/>
</linearGradient>
<linearGradient id="paint23_linear_480_6664" x1="23.1356" y1="30.7987" x2="23.1356" y2="43.4176" gradientUnits="userSpaceOnUse">
<stop offset="0.01" stop-color="#1C4E74" stop-opacity="0.5"/>
<stop offset="0.18" stop-color="#1C4E74" stop-opacity="0.29"/>
<stop offset="0.39" stop-color="#1C4E74" stop-opacity="0.08"/>
<stop offset="0.52" stop-color="#1C4E74" stop-opacity="0"/>
</linearGradient>
<linearGradient id="paint24_linear_480_6664" x1="19.8006" y1="30.7982" x2="19.8006" y2="43.4169" gradientUnits="userSpaceOnUse">
<stop offset="0.01" stop-color="#1C4E74" stop-opacity="0.5"/>
<stop offset="0.18" stop-color="#1C4E74" stop-opacity="0.29"/>
<stop offset="0.39" stop-color="#1C4E74" stop-opacity="0.08"/>
<stop offset="0.52" stop-color="#1C4E74" stop-opacity="0"/>
</linearGradient>
<linearGradient id="paint25_linear_480_6664" x1="19.8006" y1="30.7978" x2="19.8006" y2="43.4168" gradientUnits="userSpaceOnUse">
<stop offset="0.01" stop-color="#1C4E74" stop-opacity="0.5"/>
<stop offset="0.18" stop-color="#1C4E74" stop-opacity="0.29"/>
<stop offset="0.39" stop-color="#1C4E74" stop-opacity="0.08"/>
<stop offset="0.52" stop-color="#1C4E74" stop-opacity="0"/>
</linearGradient>
<linearGradient id="paint26_linear_480_6664" x1="23.3947" y1="30.7984" x2="23.3947" y2="43.4173" gradientUnits="userSpaceOnUse">
<stop offset="0.01" stop-color="#1C4E74" stop-opacity="0.5"/>
<stop offset="0.18" stop-color="#1C4E74" stop-opacity="0.29"/>
<stop offset="0.39" stop-color="#1C4E74" stop-opacity="0.08"/>
<stop offset="0.52" stop-color="#1C4E74" stop-opacity="0"/>
</linearGradient>
<linearGradient id="paint27_linear_480_6664" x1="19.7766" y1="30.7985" x2="19.7766" y2="43.4175" gradientUnits="userSpaceOnUse">
<stop offset="0.01" stop-color="#1C4E74" stop-opacity="0.5"/>
<stop offset="0.18" stop-color="#1C4E74" stop-opacity="0.29"/>
<stop offset="0.39" stop-color="#1C4E74" stop-opacity="0.08"/>
<stop offset="0.52" stop-color="#1C4E74" stop-opacity="0"/>
</linearGradient>
<linearGradient id="paint28_linear_480_6664" x1="19.8166" y1="30.7982" x2="19.8166" y2="43.4167" gradientUnits="userSpaceOnUse">
<stop offset="0.01" stop-color="#1C4E74" stop-opacity="0.5"/>
<stop offset="0.18" stop-color="#1C4E74" stop-opacity="0.29"/>
<stop offset="0.39" stop-color="#1C4E74" stop-opacity="0.08"/>
<stop offset="0.52" stop-color="#1C4E74" stop-opacity="0"/>
</linearGradient>
<linearGradient id="paint29_linear_480_6664" x1="21.5878" y1="29.865" x2="21.5878" y2="42.484" gradientUnits="userSpaceOnUse">
<stop stop-color="#6E6F70" stop-opacity="0.5"/>
<stop offset="0.61" stop-color="#5A5A5C" stop-opacity="0"/>
</linearGradient>
<linearGradient id="paint30_linear_480_6664" x1="32.4093" y1="4471.32" x2="23.4146" y2="4471.32" gradientUnits="userSpaceOnUse">
<stop offset="0.01" stop-color="#6E6F70" stop-opacity="0.5"/>
<stop offset="0.18" stop-color="#6E6F70" stop-opacity="0.3"/>
<stop offset="0.39" stop-color="#6E6F70" stop-opacity="0.08"/>
<stop offset="0.52" stop-color="#6E6F70" stop-opacity="0"/>
<stop offset="1" stop-color="#6E6F70" stop-opacity="0.5"/>
</linearGradient>
<linearGradient id="paint31_linear_480_6664" x1="23.4313" y1="30.8021" x2="23.4313" y2="43.4174" gradientUnits="userSpaceOnUse">
<stop offset="0.01" stop-color="#1C4E74" stop-opacity="0.5"/>
<stop offset="0.18" stop-color="#1C4E74" stop-opacity="0.29"/>
<stop offset="0.39" stop-color="#1C4E74" stop-opacity="0.08"/>
<stop offset="0.52" stop-color="#1C4E74" stop-opacity="0"/>
</linearGradient>
<linearGradient id="paint32_linear_480_6664" x1="32.4093" y1="41.0459" x2="23.4146" y2="41.0459" gradientUnits="userSpaceOnUse">
<stop offset="0.01" stop-color="#6E6F70" stop-opacity="0.5"/>
<stop offset="0.18" stop-color="#6E6F70" stop-opacity="0.3"/>
<stop offset="0.39" stop-color="#6E6F70" stop-opacity="0.08"/>
<stop offset="0.52" stop-color="#6E6F70" stop-opacity="0"/>
<stop offset="1" stop-color="#6E6F70" stop-opacity="0.5"/>
</linearGradient>
<linearGradient id="paint33_linear_480_6664" x1="23.4313" y1="30.7986" x2="23.4313" y2="43.4175" gradientUnits="userSpaceOnUse">
<stop offset="0.01" stop-color="#1C4E74" stop-opacity="0.5"/>
<stop offset="0.18" stop-color="#1C4E74" stop-opacity="0.29"/>
<stop offset="0.39" stop-color="#1C4E74" stop-opacity="0.08"/>
<stop offset="0.52" stop-color="#1C4E74" stop-opacity="0"/>
</linearGradient>
<linearGradient id="paint34_linear_480_6664" x1="32.4096" y1="30.825" x2="19.7906" y2="30.825" gradientUnits="userSpaceOnUse">
<stop offset="0.01" stop-color="#6E6F70" stop-opacity="0.5"/>
<stop offset="0.18" stop-color="#6E6F70" stop-opacity="0.3"/>
<stop offset="0.39" stop-color="#6E6F70" stop-opacity="0.08"/>
<stop offset="0.52" stop-color="#6E6F70" stop-opacity="0"/>
</linearGradient>
<linearGradient id="paint35_linear_480_6664" x1="19.8006" y1="30.7984" x2="19.8006" y2="43.4192" gradientUnits="userSpaceOnUse">
<stop offset="0.01" stop-color="#1C4E74" stop-opacity="0.5"/>
<stop offset="0.18" stop-color="#1C4E74" stop-opacity="0.29"/>
<stop offset="0.39" stop-color="#1C4E74" stop-opacity="0.08"/>
<stop offset="0.52" stop-color="#1C4E74" stop-opacity="0"/>
</linearGradient>
<linearGradient id="paint36_linear_480_6664" x1="32.4089" y1="30.8149" x2="19.79" y2="30.8149" gradientUnits="userSpaceOnUse">
<stop offset="0.01" stop-color="#6E6F70" stop-opacity="0.5"/>
<stop offset="0.18" stop-color="#6E6F70" stop-opacity="0.3"/>
<stop offset="0.39" stop-color="#6E6F70" stop-opacity="0.08"/>
<stop offset="0.52" stop-color="#6E6F70" stop-opacity="0"/>
</linearGradient>
<linearGradient id="paint37_linear_480_6664" x1="21.6003" y1="30.7982" x2="21.6003" y2="43.4169" gradientUnits="userSpaceOnUse">
<stop offset="0.01" stop-color="#1C4E74" stop-opacity="0.5"/>
<stop offset="0.18" stop-color="#1C4E74" stop-opacity="0.29"/>
<stop offset="0.39" stop-color="#1C4E74" stop-opacity="0.08"/>
<stop offset="0.52" stop-color="#1C4E74" stop-opacity="0"/>
</linearGradient>
<linearGradient id="paint38_linear_480_6664" x1="32.881" y1="13.0877" x2="31.4496" y2="2.5285" gradientUnits="userSpaceOnUse">
<stop stop-color="#5A5A5C" stop-opacity="0"/>
<stop offset="1" stop-color="#6E6F70" stop-opacity="0.5"/>
</linearGradient>
<linearGradient id="paint39_linear_480_6664" x1="25.6001" y1="14.0744" x2="410.312" y2="2852.11" gradientUnits="userSpaceOnUse">
<stop stop-color="#5A5A5C" stop-opacity="0"/>
<stop offset="1" stop-color="#6E6F70" stop-opacity="0.5"/>
</linearGradient>
<linearGradient id="paint40_linear_480_6664" x1="30.5008" y1="13.4105" x2="29.0699" y2="2.85459" gradientUnits="userSpaceOnUse">
<stop stop-color="#5A5A5C" stop-opacity="0"/>
<stop offset="1" stop-color="#6E6F70" stop-opacity="0.5"/>
</linearGradient>
<linearGradient id="paint41_linear_480_6664" x1="23.2465" y1="14.394" x2="21.8151" y2="3.83473" gradientUnits="userSpaceOnUse">
<stop stop-color="#5A5A5C" stop-opacity="0"/>
<stop offset="1" stop-color="#6E6F70" stop-opacity="0.5"/>
</linearGradient>
<linearGradient id="paint42_linear_480_6664" x1="36.06" y1="17.8002" x2="36.06" y2="12.7979" gradientUnits="userSpaceOnUse">
<stop stop-color="#6E6F70" stop-opacity="0"/>
<stop offset="1" stop-color="#6E6F70" stop-opacity="0.5"/>
</linearGradient>
<linearGradient id="paint43_linear_480_6664" x1="37.913" y1="2821.83" x2="37.913" y2="12.7979" gradientUnits="userSpaceOnUse">
<stop stop-color="#6E6F70" stop-opacity="0"/>
<stop offset="1" stop-color="#6E6F70" stop-opacity="0.5"/>
</linearGradient>
<linearGradient id="paint44_linear_480_6664" x1="38.2422" y1="17.8007" x2="38.2422" y2="12.7983" gradientUnits="userSpaceOnUse">
<stop stop-color="#6E6F70" stop-opacity="0"/>
<stop offset="1" stop-color="#6E6F70" stop-opacity="0.5"/>
</linearGradient>
<clipPath id="clip0_480_6664">
<rect width="125" height="46.6624" fill="white"/>
</clipPath>
</defs>
</svg>
